<?xml version="1.0" encoding="UTF-8"?>
<svg width="1440px" height="1024px" viewBox="0 0 1440 1024" version="1.1" xmlns="http://www.w3.org/2000/svg" xmlns:xlink="http://www.w3.org/1999/xlink">
    <!-- Generator: Sketch 53.2 (72643) - https://sketchapp.com -->
    <title>Business Platform</title>
    <desc>Created with Sketch.</desc>
    <defs>
        <linearGradient x1="50%" y1="7.26438915%" x2="50%" y2="151.05781%" id="linearGradient-1">
            <stop stop-color="#D0F6FF" offset="0%"></stop>
            <stop stop-color="#8BE2F7" offset="100%"></stop>
        </linearGradient>
        <linearGradient x1="8.38174197%" y1="13.1425432%" x2="56.5702499%" y2="50%" id="linearGradient-2">
            <stop stop-color="#CFE49F" offset="0%"></stop>
            <stop stop-color="#A9D386" offset="100%"></stop>
        </linearGradient>
        <linearGradient x1="8.38174197%" y1="31.2307029%" x2="56.5702499%" y2="50%" id="linearGradient-3">
            <stop stop-color="#CFE49F" offset="0%"></stop>
            <stop stop-color="#A9D386" offset="100%"></stop>
        </linearGradient>
        <linearGradient x1="44.7064793%" y1="3.88170857%" x2="54.943122%" y2="56.9243345%" id="linearGradient-4">
            <stop stop-color="#77D791" offset="0%"></stop>
            <stop stop-color="#4FA67E" offset="100%"></stop>
        </linearGradient>
        <linearGradient x1="4.76643799%" y1="41.0625251%" x2="100%" y2="60.6878325%" id="linearGradient-5">
            <stop stop-color="#6EAE7C" offset="0%"></stop>
            <stop stop-color="#0F575D" offset="100%"></stop>
        </linearGradient>
        <linearGradient x1="50%" y1="27.5155709%" x2="100%" y2="67.7032694%" id="linearGradient-6">
            <stop stop-color="#0F1752" offset="0%"></stop>
            <stop stop-color="#272884" offset="100%"></stop>
        </linearGradient>
        <linearGradient x1="50%" y1="80.842431%" x2="50.9350565%" y2="38.3895776%" id="linearGradient-7">
            <stop stop-color="#2B3389" offset="0%"></stop>
            <stop stop-color="#444FB7" offset="100%"></stop>
        </linearGradient>
        <linearGradient x1="50%" y1="0%" x2="50%" y2="100%" id="linearGradient-8">
            <stop stop-color="#FF9485" offset="0%"></stop>
            <stop stop-color="#FF676E" offset="100%"></stop>
        </linearGradient>
        <linearGradient x1="50%" y1="-2.48949813e-15%" x2="50%" y2="100%" id="linearGradient-9">
            <stop stop-color="#4DBCFA" offset="0%"></stop>
            <stop stop-color="#1486DB" offset="100%"></stop>
        </linearGradient>
        <linearGradient x1="50%" y1="0%" x2="50%" y2="91.8482298%" id="linearGradient-10">
            <stop stop-color="#EAFCFF" offset="0%"></stop>
            <stop stop-color="#FFFFFF" offset="100%"></stop>
        </linearGradient>
        <linearGradient x1="50%" y1="0%" x2="50%" y2="91.8482298%" id="linearGradient-11">
            <stop stop-color="#EAFCFF" offset="0%"></stop>
            <stop stop-color="#FFFFFF" offset="100%"></stop>
        </linearGradient>
        <linearGradient x1="50%" y1="7.26438915%" x2="50%" y2="151.05781%" id="linearGradient-12">
            <stop stop-color="#D0F6FF" offset="0%"></stop>
            <stop stop-color="#8BE2F7" offset="100%"></stop>
        </linearGradient>
        <linearGradient x1="50%" y1="0%" x2="50%" y2="100%" id="linearGradient-13">
            <stop stop-color="#FF9485" offset="0%"></stop>
            <stop stop-color="#FF676E" offset="100%"></stop>
        </linearGradient>
        <linearGradient x1="82.5767258%" y1="-52.951376%" x2="82.5767258%" y2="186.664812%" id="linearGradient-14">
            <stop stop-color="#1533B6" offset="0%"></stop>
            <stop stop-color="#356BE9" offset="100%"></stop>
        </linearGradient>
        <linearGradient x1="50%" y1="0%" x2="50%" y2="100%" id="linearGradient-15">
            <stop stop-color="#FF9485" offset="0%"></stop>
            <stop stop-color="#FF676E" offset="100%"></stop>
        </linearGradient>
        <linearGradient x1="82.5767258%" y1="-52.951376%" x2="82.5767258%" y2="186.664812%" id="linearGradient-16">
            <stop stop-color="#1533B6" offset="0%"></stop>
            <stop stop-color="#356BE9" offset="100%"></stop>
        </linearGradient>
        <linearGradient x1="50%" y1="0%" x2="50%" y2="100%" id="linearGradient-17">
            <stop stop-color="#FF9485" offset="0%"></stop>
            <stop stop-color="#FF676E" offset="100%"></stop>
        </linearGradient>
        <linearGradient x1="50%" y1="0%" x2="50%" y2="100%" id="linearGradient-18">
            <stop stop-color="#1D2A78" offset="0%"></stop>
            <stop stop-color="#12033B" offset="100%"></stop>
        </linearGradient>
    </defs>
    <g id="Business-Platform" stroke="none" stroke-width="1" fill="none" fill-rule="evenodd">
        <rect fill="#FFFFFF" x="0" y="0" width="1440" height="1024"></rect>
        <g id="Element" transform="translate(176.109723, 107.648649)">
            <path d="M607.241628,287.702703 C607.241628,156.520452 607.241628,-9.32908185 607.241628,-95 C501.202957,-95 415.241628,-9.32908185 415.241628,96.3513514 C415.241628,202.031785 501.202957,287.702703 607.241628,287.702703 Z" id="Shape" fill="url(#linearGradient-1)" transform="translate(511.241628, 96.351351) rotate(-270.000000) translate(-511.241628, -96.351351) "></path>
            <path d="M1123.70789,250.930751 C1123.70789,253.365521 1121.734,255.339293 1119.29908,255.339293 C1116.86417,255.339293 1114.89028,253.365521 1114.89028,250.930751 C1114.89028,248.49598 1116.86417,246.522208 1119.29908,246.522208 C1121.734,246.522208 1123.70789,248.49598 1123.70789,250.930751 Z M1123.70789,233.296579 C1123.70789,235.73135 1121.734,237.705122 1119.29908,237.705122 C1116.86417,237.705122 1114.89028,235.73135 1114.89028,233.296579 C1114.89028,230.861808 1116.86417,228.888036 1119.29908,228.888036 C1121.734,228.888036 1123.70789,230.861808 1123.70789,233.296579 Z M1123.70789,215.662408 C1123.70789,218.097179 1121.734,220.070951 1119.29908,220.070951 C1116.86417,220.070951 1114.89028,218.097179 1114.89028,215.662408 C1114.89028,213.227637 1116.86417,211.253865 1119.29908,211.253865 C1121.734,211.253865 1123.70789,213.227637 1123.70789,215.662408 Z M1123.70789,198.028237 C1123.70789,200.463008 1121.734,202.43678 1119.29908,202.43678 C1116.86417,202.43678 1114.89028,200.463008 1114.89028,198.028237 C1114.89028,195.593466 1116.86417,193.619694 1119.29908,193.619694 C1121.734,193.619694 1123.70789,195.593466 1123.70789,198.028237 Z M1123.70789,180.394065 C1123.70789,182.828836 1121.734,184.802608 1119.29908,184.802608 C1116.86417,184.802608 1114.89028,182.828836 1114.89028,180.394065 C1114.89028,177.959294 1116.86417,175.985523 1119.29908,175.985523 C1121.734,175.985523 1123.70789,177.959294 1123.70789,180.394065 Z M1123.70789,162.759894 C1123.70789,165.194665 1121.734,167.168437 1119.29908,167.168437 C1116.86417,167.168437 1114.89028,165.194665 1114.89028,162.759894 C1114.89028,160.325123 1116.86417,158.351351 1119.29908,158.351351 C1121.734,158.351351 1123.70789,160.325123 1123.70789,162.759894 Z M1141.34312,250.930751 C1141.34312,253.365521 1139.36923,255.339293 1136.93431,255.339293 C1134.4994,255.339293 1132.52551,253.365521 1132.52551,250.930751 C1132.52551,248.49598 1134.4994,246.522208 1136.93431,246.522208 C1139.36923,246.522208 1141.34312,248.49598 1141.34312,250.930751 Z M1141.34312,233.296579 C1141.34312,235.73135 1139.36923,237.705122 1136.93431,237.705122 C1134.4994,237.705122 1132.52551,235.73135 1132.52551,233.296579 C1132.52551,230.861808 1134.4994,228.888036 1136.93431,228.888036 C1139.36923,228.888036 1141.34312,230.861808 1141.34312,233.296579 Z M1141.34312,215.662408 C1141.34312,218.097179 1139.36923,220.070951 1136.93431,220.070951 C1134.4994,220.070951 1132.52551,218.097179 1132.52551,215.662408 C1132.52551,213.227637 1134.4994,211.253865 1136.93431,211.253865 C1139.36923,211.253865 1141.34312,213.227637 1141.34312,215.662408 Z M1141.34312,198.028237 C1141.34312,200.463008 1139.36923,202.43678 1136.93431,202.43678 C1134.4994,202.43678 1132.52551,200.463008 1132.52551,198.028237 C1132.52551,195.593466 1134.4994,193.619694 1136.93431,193.619694 C1139.36923,193.619694 1141.34312,195.593466 1141.34312,198.028237 Z M1141.34312,180.394065 C1141.34312,182.828836 1139.36923,184.802608 1136.93431,184.802608 C1134.4994,184.802608 1132.52551,182.828836 1132.52551,180.394065 C1132.52551,177.959294 1134.4994,175.985523 1136.93431,175.985523 C1139.36923,175.985523 1141.34312,177.959294 1141.34312,180.394065 Z M1141.34312,162.759894 C1141.34312,165.194665 1139.36923,167.168437 1136.93431,167.168437 C1134.4994,167.168437 1132.52551,165.194665 1132.52551,162.759894 C1132.52551,160.325123 1134.4994,158.351351 1136.93431,158.351351 C1139.36923,158.351351 1141.34312,160.325123 1141.34312,162.759894 Z M1158.97835,250.930751 C1158.97835,253.365521 1157.00446,255.339293 1154.56954,255.339293 C1152.13463,255.339293 1150.16074,253.365521 1150.16074,250.930751 C1150.16074,248.49598 1152.13463,246.522208 1154.56954,246.522208 C1157.00446,246.522208 1158.97835,248.49598 1158.97835,250.930751 Z M1158.97835,233.296579 C1158.97835,235.73135 1157.00446,237.705122 1154.56954,237.705122 C1152.13463,237.705122 1150.16074,235.73135 1150.16074,233.296579 C1150.16074,230.861808 1152.13463,228.888036 1154.56954,228.888036 C1157.00446,228.888036 1158.97835,230.861808 1158.97835,233.296579 Z M1158.97835,215.662408 C1158.97835,218.097179 1157.00446,220.070951 1154.56954,220.070951 C1152.13463,220.070951 1150.16074,218.097179 1150.16074,215.662408 C1150.16074,213.227637 1152.13463,211.253865 1154.56954,211.253865 C1157.00446,211.253865 1158.97835,213.227637 1158.97835,215.662408 Z M1158.97835,198.028237 C1158.97835,200.463008 1157.00446,202.43678 1154.56954,202.43678 C1152.13463,202.43678 1150.16074,200.463008 1150.16074,198.028237 C1150.16074,195.593466 1152.13463,193.619694 1154.56954,193.619694 C1157.00446,193.619694 1158.97835,195.593466 1158.97835,198.028237 Z M1158.97835,180.394065 C1158.97835,182.828836 1157.00446,184.802608 1154.56954,184.802608 C1152.13463,184.802608 1150.16074,182.828836 1150.16074,180.394065 C1150.16074,177.959294 1152.13463,175.985523 1154.56954,175.985523 C1157.00446,175.985523 1158.97835,177.959294 1158.97835,180.394065 Z M1158.97835,162.759894 C1158.97835,165.194665 1157.00446,167.168437 1154.56954,167.168437 C1152.13463,167.168437 1150.16074,165.194665 1150.16074,162.759894 C1150.16074,160.325123 1152.13463,158.351351 1154.56954,158.351351 C1157.00446,158.351351 1158.97835,160.325123 1158.97835,162.759894 Z M1176.61358,250.930751 C1176.61358,253.365521 1174.63969,255.339293 1172.20477,255.339293 C1169.76986,255.339293 1167.79596,253.365521 1167.79596,250.930751 C1167.79596,248.49598 1169.76986,246.522208 1172.20477,246.522208 C1174.63969,246.522208 1176.61358,248.49598 1176.61358,250.930751 Z M1176.61358,233.296579 C1176.61358,235.73135 1174.63969,237.705122 1172.20477,237.705122 C1169.76986,237.705122 1167.79596,235.73135 1167.79596,233.296579 C1167.79596,230.861808 1169.76986,228.888036 1172.20477,228.888036 C1174.63969,228.888036 1176.61358,230.861808 1176.61358,233.296579 Z M1176.61358,215.662408 C1176.61358,218.097179 1174.63969,220.070951 1172.20477,220.070951 C1169.76986,220.070951 1167.79596,218.097179 1167.79596,215.662408 C1167.79596,213.227637 1169.76986,211.253865 1172.20477,211.253865 C1174.63969,211.253865 1176.61358,213.227637 1176.61358,215.662408 Z M1176.61358,198.028237 C1176.61358,200.463008 1174.63969,202.43678 1172.20477,202.43678 C1169.76986,202.43678 1167.79596,200.463008 1167.79596,198.028237 C1167.79596,195.593466 1169.76986,193.619694 1172.20477,193.619694 C1174.63969,193.619694 1176.61358,195.593466 1176.61358,198.028237 Z M1176.61358,180.394065 C1176.61358,182.828836 1174.63969,184.802608 1172.20477,184.802608 C1169.76986,184.802608 1167.79596,182.828836 1167.79596,180.394065 C1167.79596,177.959294 1169.76986,175.985523 1172.20477,175.985523 C1174.63969,175.985523 1176.61358,177.959294 1176.61358,180.394065 Z M1176.61358,162.759894 C1176.61358,165.194665 1174.63969,167.168437 1172.20477,167.168437 C1169.76986,167.168437 1167.79596,165.194665 1167.79596,162.759894 C1167.79596,160.325123 1169.76986,158.351351 1172.20477,158.351351 C1174.63969,158.351351 1176.61358,160.325123 1176.61358,162.759894 Z M1194.24881,250.930751 C1194.24881,253.365521 1192.27492,255.339293 1189.84,255.339293 C1187.40508,255.339293 1185.43119,253.365521 1185.43119,250.930751 C1185.43119,248.49598 1187.40508,246.522208 1189.84,246.522208 C1192.27492,246.522208 1194.24881,248.49598 1194.24881,250.930751 Z M1194.24881,233.296579 C1194.24881,235.73135 1192.27492,237.705122 1189.84,237.705122 C1187.40508,237.705122 1185.43119,235.73135 1185.43119,233.296579 C1185.43119,230.861808 1187.40508,228.888036 1189.84,228.888036 C1192.27492,228.888036 1194.24881,230.861808 1194.24881,233.296579 Z M1194.24881,215.662408 C1194.24881,218.097179 1192.27492,220.070951 1189.84,220.070951 C1187.40508,220.070951 1185.43119,218.097179 1185.43119,215.662408 C1185.43119,213.227637 1187.40508,211.253865 1189.84,211.253865 C1192.27492,211.253865 1194.24881,213.227637 1194.24881,215.662408 Z M1194.24881,198.028237 C1194.24881,200.463008 1192.27492,202.43678 1189.84,202.43678 C1187.40508,202.43678 1185.43119,200.463008 1185.43119,198.028237 C1185.43119,195.593466 1187.40508,193.619694 1189.84,193.619694 C1192.27492,193.619694 1194.24881,195.593466 1194.24881,198.028237 Z M1194.24881,180.394065 C1194.24881,182.828836 1192.27492,184.802608 1189.84,184.802608 C1187.40508,184.802608 1185.43119,182.828836 1185.43119,180.394065 C1185.43119,177.959294 1187.40508,175.985523 1189.84,175.985523 C1192.27492,175.985523 1194.24881,177.959294 1194.24881,180.394065 Z M1194.24881,162.759894 C1194.24881,165.194665 1192.27492,167.168437 1189.84,167.168437 C1187.40508,167.168437 1185.43119,165.194665 1185.43119,162.759894 C1185.43119,160.325123 1187.40508,158.351351 1189.84,158.351351 C1192.27492,158.351351 1194.24881,160.325123 1194.24881,162.759894 Z M1211.88404,250.930751 C1211.88404,253.365521 1209.91015,255.339293 1207.47523,255.339293 C1205.04031,255.339293 1203.06642,253.365521 1203.06642,250.930751 C1203.06642,248.49598 1205.04031,246.522208 1207.47523,246.522208 C1209.91015,246.522208 1211.88404,248.49598 1211.88404,250.930751 Z M1211.88404,233.296579 C1211.88404,235.73135 1209.91015,237.705122 1207.47523,237.705122 C1205.04031,237.705122 1203.06642,235.73135 1203.06642,233.296579 C1203.06642,230.861808 1205.04031,228.888036 1207.47523,228.888036 C1209.91015,228.888036 1211.88404,230.861808 1211.88404,233.296579 Z M1211.88404,215.662408 C1211.88404,218.097179 1209.91015,220.070951 1207.47523,220.070951 C1205.04031,220.070951 1203.06642,218.097179 1203.06642,215.662408 C1203.06642,213.227637 1205.04031,211.253865 1207.47523,211.253865 C1209.91015,211.253865 1211.88404,213.227637 1211.88404,215.662408 Z M1211.88404,198.028237 C1211.88404,200.463008 1209.91015,202.43678 1207.47523,202.43678 C1205.04031,202.43678 1203.06642,200.463008 1203.06642,198.028237 C1203.06642,195.593466 1205.04031,193.619694 1207.47523,193.619694 C1209.91015,193.619694 1211.88404,195.593466 1211.88404,198.028237 Z M1211.88404,180.394065 C1211.88404,182.828836 1209.91015,184.802608 1207.47523,184.802608 C1205.04031,184.802608 1203.06642,182.828836 1203.06642,180.394065 C1203.06642,177.959294 1205.04031,175.985523 1207.47523,175.985523 C1209.91015,175.985523 1211.88404,177.959294 1211.88404,180.394065 Z M1211.88404,162.759894 C1211.88404,165.194665 1209.91015,167.168437 1207.47523,167.168437 C1205.04031,167.168437 1203.06642,165.194665 1203.06642,162.759894 C1203.06642,160.325123 1205.04031,158.351351 1207.47523,158.351351 C1209.91015,158.351351 1211.88404,160.325123 1211.88404,162.759894 Z" id="Shape" fill="url(#linearGradient-2)"></path>
            <path d="M212.044068,884.505142 C212.044068,788.094063 212.044068,666.204611 212.044068,603.241628 C134.14758,603.241628 71,666.204611 71,743.873385 C71,821.54216 134.14758,884.505142 212.044068,884.505142 Z" id="Shape" fill="#00ADFF" transform="translate(141.522034, 743.873385) rotate(-270.000000) translate(-141.522034, -743.873385) "></path>
        </g>
        <g id="Plant" transform="translate(269.000000, 72.000000)">
            <path d="M199,188.174269 C142.719017,213.593114 97.7234642,213.271218 64.0133428,187.20858 C30.3032215,161.145943 8.96544052,124.033496 0,75.8712405 C105.372053,44.2283274 171.705387,81.6626704 199,188.174269 Z" id="Shape" fill="url(#linearGradient-3)"></path>
            <path d="M115.89853,142.470656 C103.751316,135.579494 90.2443015,127.943142 75.3776565,119.561698 L40.892016,127.819418 C40.2802333,127.965912 39.665953,127.586943 39.5199824,126.972968 C39.3740118,126.358992 39.7516271,125.742511 40.3634098,125.596017 L72.451652,117.912363 C53.8970542,107.455192 33.2742461,95.8646208 10.5835455,83.1408384 C10.0344845,82.8329531 9.83808165,82.1366657 10.1448674,81.5856369 C10.4516531,81.0346081 11.145454,80.8375013 11.694515,81.1453866 C53.1251551,104.377567 87.6617264,123.831731 115.306161,139.509018 L111.739126,104.426202 C111.584986,102.910198 113.850871,102.678161 114.00501,104.194164 L117.735765,140.887202 C154.592735,161.79948 178.829942,175.796159 190.452172,182.880068 C190.989749,183.207729 191.160869,183.910705 190.834378,184.450209 C190.507888,184.989712 189.807422,185.161445 189.269845,184.833785 C182.315586,180.595068 170.826387,173.871062 154.803279,164.662373 C154.761111,164.684157 154.717118,164.703541 154.671409,164.720293 L123.156017,176.270705 C122.565224,176.487231 121.91139,176.182112 121.695637,175.589201 C121.479885,174.996291 121.783915,174.340113 122.374708,174.123587 L152.226934,163.182727 C141.98523,157.304619 129.997135,150.469451 116.262897,142.67737 C116.130357,142.632944 116.00606,142.56433 115.89853,142.470656 Z" id="Shape" fill="#FFFFFF" fill-rule="nonzero"></path>
            <path d="M186.397111,220 C128.543838,198.081935 96.8676044,166.008613 91.3684105,123.780034 C85.8692165,81.5514554 96.9446186,40.291444 124.594617,0 C221.65003,52.2763031 242.250861,125.609636 186.397111,220 Z" id="Shape" fill="url(#linearGradient-4)" fill-rule="nonzero"></path>
            <path d="M162.563708,129.304978 C173.864256,170.239804 181.123492,197.331633 184.342806,210.585861 C184.491713,211.198925 184.118297,211.817323 183.508757,211.967091 C182.899218,212.116859 182.284375,211.741283 182.135469,211.128219 C180.209165,203.19744 176.830716,190.29204 172.000421,172.413182 C171.955362,172.398663 171.910703,172.381154 171.866683,172.360566 L141.515869,158.165964 C140.946908,157.899869 140.700146,157.220256 140.96471,156.648004 C141.229275,156.075753 141.904981,155.827563 142.473943,156.093658 L171.223049,169.539167 C168.130029,158.116906 164.47778,144.778947 160.266374,129.525569 C160.204104,129.400123 160.16465,129.263425 160.154641,129.120906 C156.429503,115.630464 152.268924,100.648399 147.672953,84.1749033 L117.541306,65.5450292 C117.006764,65.2145312 116.839813,64.5107721 117.168411,63.9731392 C117.497009,63.4355063 118.196722,63.2675903 118.731264,63.5980883 L146.768197,80.932837 C141.029686,60.375216 134.628875,37.5488955 127.565857,12.4542334 C127.394949,11.8470023 127.745829,11.2153946 128.349569,11.0434981 C128.953309,10.8716016 129.581285,11.22451 129.752193,11.8317411 C142.64846,57.6517416 153.337053,95.9093719 161.818533,126.60681 L183.96233,99.2732765 C184.919211,98.0921359 186.680736,99.5357572 185.723855,100.716898 L162.563708,129.304978 Z" id="Shape" fill="#FFFFFF" fill-rule="nonzero"></path>
            <path d="M244,259.562526 C196.223838,298.760152 152.710901,310.14864 113.461189,293.727992 C74.2114767,277.307343 44.0577471,246.99163 23,202.780852 C116.556202,144.804099 190.222869,163.731324 244,259.562526 Z" id="Shape" fill="url(#linearGradient-5)"></path>
            <path d="M153.169327,234.117219 C194.134683,244.712951 221.136641,251.916434 234.18055,255.729153 C234.783886,255.905508 235.130224,256.538261 234.954118,257.142447 C234.778012,257.746634 234.146149,258.09346 233.542813,257.917105 C225.737881,255.635733 212.91513,252.1352 195.075714,247.415825 C195.040625,247.447727 195.003156,247.477791 194.963353,247.505765 L167.519981,266.793099 C167.005523,267.154663 166.29578,267.030129 165.934725,266.514946 C165.57367,265.999763 165.698028,265.289019 166.212486,264.927456 L192.207586,246.657974 C180.806972,243.649068 167.474018,240.170685 152.208998,236.222899 C152.069616,236.214438 151.931956,236.180546 151.804023,236.118173 C138.303048,232.627071 123.297489,228.770425 106.787534,224.548288 L75.6285754,241.433553 C75.0758088,241.733101 74.3852129,241.527196 74.0860862,240.97365 C73.7869596,240.420104 73.9925754,239.728535 74.545342,239.428987 L103.538169,223.717564 C82.9334951,218.451367 60.0404012,212.629201 34.8592418,206.251166 C34.2499177,206.096833 33.8808986,205.47707 34.0350147,204.866887 C34.1891308,204.256704 34.8080214,203.887165 35.4173455,204.041498 C81.3952802,215.687066 119.745108,225.479396 150.468989,233.419087 L137.984634,200.55283 C137.445158,199.132608 139.572492,198.322254 140.111968,199.742476 L153.169327,234.117219 Z" id="Shape" fill="#FFFFFF" fill-rule="nonzero"></path>
        </g>
        <g id="Data" transform="translate(372.000000, 222.000000)">
            <path d="M81,0 L891,0 C902.045695,-2.02906125e-15 911,8.954305 911,20 L911,570 L61,570 L61,20 C61,8.954305 69.954305,2.02906125e-15 81,0 Z" id="Shape" fill="url(#linearGradient-6)"></path>
            <path d="M61,110 L911,110 L911,680 C911,691.045695 902.045695,700 891,700 L81,700 C69.954305,700 61,691.045695 61,680 L61,110 Z" id="Shape" fill="url(#linearGradient-7)"></path>
            <polygon id="Shape" fill="#52D7FD" points="470.407082 364.372138 871 364.372138 871 660 470.407082 660"></polygon>
            <polygon id="Shape" fill="#0096C1" points="500 383 600 383 600 483 500 483"></polygon>
            <path d="M630,383 L730,383 L730,399 L630,399 L630,383 Z M630,417 L840,417 L840,433 L630,433 L630,417 Z M630,453 L840,453 L840,469 L630,469 L630,453 Z" id="Shape" fill="#0096C1"></path>
            <path d="M630,523 L730,523 L730,539 L630,539 L630,523 Z M630,557 L840,557 L840,573 L630,573 L630,557 Z M630,593 L840,593 L840,609 L630,609 L630,593 Z" id="Shape" fill="#0096C1"></path>
            <polygon id="Shape" fill="#0096C1" points="500 523 600 523 600 623 500 623"></polygon>
            <polygon id="Shape" fill="url(#linearGradient-8)" points="470.407082 150 971 150 971 322.63385 470.407082 322.63385"></polygon>
            <path d="M490,170 L540,170 L540,220 L490,220 L490,170 Z M560,170 L750,170 L750,186 L560,186 L560,170 Z M560,204 L950,204 L950,220 L560,220 L560,204 Z M490,253 L540,253 L540,303 L490,303 L490,253 Z M560,253 L750,253 L750,269 L560,269 L560,253 Z M560,288 L950,288 L950,304 L560,304 L560,288 Z" id="Shape" fill="#FFDCDA"></path>
            <path d="M10,150 L421,150 C426.522847,150 431,154.477153 431,160 L431,368 C431,373.522847 426.522847,378 421,378 L10,378 C4.4771525,378 6.76353751e-16,373.522847 0,368 L0,160 C-6.76353751e-16,154.477153 4.4771525,150 10,150 Z" id="Shape" fill="url(#linearGradient-9)"></path>
            <path d="M101,324 C67.862915,324 41,297.137085 41,264 C41,230.862915 67.862915,204 101,204 C134.137085,204 161,230.862915 161,264 C161,297.137085 134.137085,324 101,324 Z M212,205 L387,205 C389.209139,205 391,206.790861 391,209 L391,226 C391,228.209139 389.209139,230 387,230 L212,230 C209.790861,230 208,228.209139 208,226 L208,209 C208,206.790861 209.790861,205 212,205 Z M212,299 L387,299 C389.209139,299 391,300.790861 391,303 L391,320 C391,322.209139 389.209139,324 387,324 L212,324 C209.790861,324 208,322.209139 208,320 L208,303 C208,300.790861 209.790861,299 212,299 Z M212,252 L387,252 C389.209139,252 391,253.790861 391,256 L391,273 C391,275.209139 389.209139,277 387,277 L212,277 C209.790861,277 208,275.209139 208,273 L208,256 C208,253.790861 209.790861,252 212,252 Z" id="Shape" fill="url(#linearGradient-10)"></path>
            <path d="M10,418 L421,418 C426.522847,418 431,422.477153 431,428 L431,636 C431,641.522847 426.522847,646 421,646 L10,646 C4.4771525,646 6.76353751e-16,641.522847 0,636 L0,428 C-6.76353751e-16,422.477153 4.4771525,418 10,418 Z" id="Shape" fill="url(#linearGradient-11)"></path>
            <path d="M35.0006085,603.212925 C52.0383916,564.471598 84.8994439,550.329462 133.583765,560.786518 C206.610248,576.472101 238.757751,542.935174 272.367942,509.187094 C305.978133,475.439013 341.356971,468.50311 395,499.748081 L395,611.404124 L35.0006085,611.404124 L35.0006085,603.212925 Z" id="Shape" fill="url(#linearGradient-12)"></path>
            <path d="M41,611.372587 L40,611.372587 L40,477 L41,477 L41,611.372587 Z M66,611.372587 L65,611.372587 L65,477 L66,477 L66,611.372587 Z M91,611.372587 L90,611.372587 L90,477 L91,477 L91,611.372587 Z M116,611.372587 L115,611.372587 L115,477 L116,477 L116,611.372587 Z M141,611.372587 L140,611.372587 L140,477 L141,477 L141,611.372587 Z M166,611.372587 L165,611.372587 L165,477 L166,477 L166,611.372587 Z M191,611.372587 L190,611.372587 L190,477 L191,477 L191,611.372587 Z M216,611.372587 L215,611.372587 L215,477 L216,477 L216,611.372587 Z M241,611.372587 L240,611.372587 L240,477 L241,477 L241,611.372587 Z M266,611.372587 L265,611.372587 L265,477 L266,477 L266,611.372587 Z M291,611.372587 L290,611.372587 L290,477 L291,477 L291,611.372587 Z M316,611.372587 L315,611.372587 L315,477 L316,477 L316,611.372587 Z M341,611.372587 L340,611.372587 L340,477 L341,477 L341,611.372587 Z M366,611.372587 L365,611.372587 L365,477 L366,477 L366,611.372587 Z M391,611.372587 L390,611.372587 L390,477 L391,477 L391,611.372587 Z" id="Shape" fill="#8CB6BE"></path>
            <path d="M38.701541,608.943093 C37.8633957,610.987062 35.5269808,611.964575 33.4830122,611.126429 C31.4390436,610.288284 30.4615307,607.951869 31.299676,605.907901 C49.1012372,562.495581 83.9130566,546.026361 134.423779,556.875715 C166.430636,563.750567 191.701724,561.384677 213.822998,550.985013 C230.94934,542.933569 243.348589,532.642645 266.054977,509.858217 C266.801799,509.108829 269.353483,506.54545 269.533731,506.364463 C306.275206,469.472252 344.217549,465.540227 397.013234,496.291653 C398.922166,497.403532 399.568306,499.852382 398.456427,501.761315 C397.344549,503.670247 394.895698,504.316386 392.986766,503.204508 C343.261842,474.24168 309.311981,477.759958 275.202153,512.009725 C275.023334,512.189277 272.470277,514.754036 271.721528,515.505359 C260.544934,526.720365 254.070257,532.877763 246.547236,539.121595 C236.803649,547.208416 227.332009,553.474108 217.226602,558.224867 C193.464763,569.395794 166.410241,571.92865 132.743752,564.69732 C85.8858312,554.632563 54.975546,569.255996 38.701541,608.943093 Z" id="Shape" fill="url(#linearGradient-13)"></path>
        </g>
        <g id="Men" transform="translate(1043.170010, 495.461948)">
            <path d="M305.481105,155.685299 L316.331676,177.903338 C321.792452,189.08503 319.783309,202.477109 311.281728,211.564101 L283.811736,240.925654 L272.780724,225.739034 L292.476342,198.305476 L283.811736,176.687153 L305.481105,155.685299 Z" id="Shape" fill="#E9A17C"></path>
            <polygon id="Shape" fill="#FF686E" points="253.015364 88.3993354 278.932016 99.9758803 310.962586 155.398251 289.76098 182.302804 253.015364 142.345979"></polygon>
            <polygon id="Shape" fill="#E9A17C" points="293.335256 396.987664 314.950163 396.987664 314.950163 418.615571 293.335256 418.615571"></polygon>
            <path d="M312.548507,395.786114 L327.955456,395.786114 C330.606422,395.786114 332.755456,397.935147 332.755456,400.586114 L332.755456,443.192738 C332.755456,444.881897 331.080093,446.25123 329.013428,446.25123 C320.968314,446.25123 319.920103,440.143985 317.351819,432.892817 L312.548507,418.502709 L312.548507,395.786114 Z" id="Shape" fill="#211D41"></path>
            <polygon id="Shape" fill="#E9A17C" points="140.82999 387.538052 140.82999 409.152959 119.202083 409.152959 119.202083 387.538052"></polygon>
            <path d="M108.524264,296.895081 C108.506191,296.470266 108.497151,296.045114 108.497151,295.619915 C108.497151,279.051372 121.928609,265.619915 138.497151,265.619915 L217.678533,265.619915 L288.53018,263.867404 L288.53018,293.576539 C288.53018,310.145082 275.098723,323.576539 258.53018,323.576539 L154.245296,323.576539 L145.84802,393.060609 L112.615529,393.060609 L108.524264,296.895081 Z" id="Shape" fill="#211D41"></path>
            <path d="M298.849927,424.725845 L192.369038,424.725845 C191.388586,424.725845 190.409462,424.653749 189.439585,424.510139 C178.513021,422.892247 170.966851,412.722956 172.584743,401.796392 L192.719883,265.812112 L288.600682,264.232238 L228.895135,391.352127 L298.849927,391.352127 L298.849927,424.725845 Z" id="Shape" fill="url(#linearGradient-14)"></path>
            <path d="M141.82999,406.538052 L141.82999,421.945001 C141.82999,424.595967 139.680957,426.745001 137.02999,426.745001 L94.4233656,426.745001 C92.7342072,426.745001 91.3648737,425.069638 91.3648737,423.002973 C91.3648737,414.957859 97.4721184,413.909648 104.723287,411.341364 L119.113394,406.538052 L141.82999,406.538052 Z" id="Shape" fill="#211D41"></path>
            <path d="M173.82999,92.7037598 L173.82999,133.538052 L112.066156,124.741454 L36.6799395,68.8723017 C25.7548785,71.4810068 17.4001052,71.4810068 11.6156196,68.8723017 C5.83113405,66.2635966 1.95926084,59.6890049 -2.55795385e-13,49.1485267 L20.292348,49.1485267 L20.292348,39.8719481 L28.3314786,50.0376562 L113.259921,92.7037598 L173.82999,92.7037598 Z" id="Shape" fill="#E9A17C"></path>
            <path d="M221.52512,89.975095 C220.728949,77.7858674 218.352283,70.8687172 214.395122,69.2236442 C208.459381,66.7560347 204.649285,65.5194731 205.424059,59.2735663 C206.198832,53.0276595 204.520013,50.924367 201.934358,49.687075 C199.348703,48.4497829 197.272225,44.4819995 204.653577,40.2319893 C209.574479,37.3986492 212.397839,30.5962846 213.123659,19.8248955 C239.734544,11.1298598 254.488356,16.1149047 257.385096,34.7800304 C260.281836,53.445156 258.299168,68.0282299 251.437091,78.529252 L251.437091,89.975095 L221.52512,89.975095 Z" id="Shape" fill="#E9A17C"></path>
            <path d="M157.860447,86.1274155 C200.3031,86.1274155 226.048056,86.1274155 235.095314,86.1274155 C239.484917,86.1274155 243.874521,86.1274155 248.264124,86.1274155 C271.460084,86.1274155 290.264124,104.931456 290.264124,128.127416 L290.264124,265.994482 L192.654529,265.994482 L192.654529,135.02783 L157.860447,135.02783 L157.860447,86.1274155 Z" id="Shape" fill="url(#linearGradient-15)"></path>
            <path d="M251.840773,78.2882838 C243.642449,78.0374529 238.957038,76.622035 237.784539,74.0420301 C236.025792,70.1720227 235.795236,63.2724188 236.187436,61.0948814 C236.579637,58.9173441 239.06187,59.82876 241.021915,59.82876 C242.981959,59.82876 246.024802,55.4172005 243.994247,52.1003932 C241.963693,48.7835858 239.154604,49.3031185 237.784539,49.8920604 C236.414475,50.4810023 233.11986,48.8314543 234.223714,43.47529 C235.327569,38.1191257 237.791734,33.1025085 234.223714,33.1025085 C230.655695,33.1025085 210.662888,30.8099272 209.608279,17.2388926 C208.553669,3.66785805 216.430462,-4.02173535 229.077298,2.1698936 C241.724135,8.36152255 245.796276,7.78582424 255.324852,9.95969169 C264.853429,12.1335591 274.339156,14.8020676 276.346686,31.5132748 C278.354217,48.2244819 271.67865,56.7284778 263.995799,62.793734 C256.312949,68.8589901 258.072976,70.7175638 257.008773,74.0420301 C256.299305,76.2583409 254.576638,77.6737588 251.840773,78.2882838 Z" id="Shape" fill="#221E41"></path>
            <path d="M234.749107,272.256217 L232.735972,278.960491 L231.778219,278.6729 L233.791354,271.968626 L234.749107,272.256217 Z M229.860065,288.538025 L227.84693,295.242299 L226.889176,294.954708 L228.902311,288.250434 L229.860065,288.538025 Z M224.971022,304.819833 L222.957887,311.524106 L222.000134,311.236516 L224.013269,304.532242 L224.971022,304.819833 Z M220.08198,321.10164 L218.068845,327.805914 L217.111091,327.518323 L219.124226,320.81405 L220.08198,321.10164 Z M215.192937,337.383448 L213.179802,344.087722 L212.222049,343.800131 L214.235184,337.095857 L215.192937,337.383448 Z M210.303895,353.665256 L208.29076,360.36953 L207.333006,360.081939 L209.346141,353.377665 L210.303895,353.665256 Z M205.414852,369.947064 L203.401717,376.651337 L202.443964,376.363747 L204.457099,369.659473 L205.414852,369.947064 Z M200.52581,386.228871 L198.512675,392.933145 L197.554921,392.645554 L199.568056,385.941281 L200.52581,386.228871 Z M199.106295,402.211673 C200.300248,404.114523 202.136052,405.54471 204.280315,406.225812 L203.977581,407.178887 C201.606728,406.425811 199.578477,404.845698 198.259233,402.743167 L199.106295,402.211673 Z M214.072698,406.669817 L221.072698,406.669817 L221.072698,407.669817 L214.072698,407.669817 L214.072698,406.669817 Z M231.072698,406.669817 L238.072698,406.669817 L238.072698,407.669817 L231.072698,407.669817 L231.072698,406.669817 Z M248.072698,406.669817 L255.072698,406.669817 L255.072698,407.669817 L248.072698,407.669817 L248.072698,406.669817 Z M265.072698,406.669817 L272.072698,406.669817 L272.072698,407.669817 L265.072698,407.669817 L265.072698,406.669817 Z M282.072698,406.669817 L285.973779,406.669817 L285.973779,407.669817 L282.072698,407.669817 L282.072698,406.669817 Z" id="Shape" fill="#FFFFFF" fill-rule="nonzero"></path>
        </g>
        <g id="Women" transform="translate(97.645058, 395.171792)">
            <path d="M160.209543,513.011204 C165.445744,511.456826 171.478473,511.14285 178.307728,512.069277 C188.551764,513.458765 200.271431,515.841985 196.638957,521.644338 C193.006177,527.446692 176.34571,527.688876 168.091746,526.423459 C159.837783,525.158042 158.875528,525.886128 151.00664,526.423459 C143.137752,526.960791 141.75349,526.467751 141.753566,521.998778 C141.753566,517.529881 141.753316,511.997188 141.753566,509.532822 C141.753817,507.068457 142.122532,504.92226 147.861384,507.010646 C151.687285,508.402803 155.803339,510.402989 160.209543,513.011204 Z" id="Shape" fill="#211D41"></path>
            <path d="M141.789441,486.77443 L163.417348,486.77443 L163.417348,509.072722 L176.102515,511.808403 C166.926959,516.081713 156.402159,516.413203 146.975871,512.725778 L141.789441,510.696923 L141.789441,486.77443 Z" id="Shape" fill="#E9A17C"></path>
            <path d="M20.4072638,511.094779 C25.8522149,510.663035 31.8183929,511.610195 38.3057979,513.936259 C48.0370864,517.425238 59.0051509,522.193035 54.2456779,527.113359 C49.4859056,532.03362 33.1391569,528.806606 25.3286572,525.852746 C17.5181575,522.898886 16.4255532,523.410997 8.61690181,522.300553 C0.808250396,521.190109 -0.443253627,520.420039 0.485972697,516.048739 C1.41510876,511.677498 2.56517502,506.265656 3.07779053,503.855195 C3.59040605,501.444734 4.39728328,499.422096 9.5765274,502.658021 C13.0293785,504.815205 16.639624,507.627458 20.4072638,511.094779 Z" id="Shape" fill="#211D41"></path>
            <path d="M7.84461741,481.601587 L28.9999027,486.098281 L24.3638271,507.909302 L36.2030129,513.222597 C26.3394938,515.494819 15.9757649,513.630836 7.52212296,508.064155 L2.87085152,505.001316 L7.84461741,481.601587 Z" id="Shape" fill="#E9A17C"></path>
            <polygon id="Shape" fill="#1E1539" points="29.8181862 500.54798 2.64801374 493.267754 25.3711972 240.696086 108.562101 264.801354"></polygon>
            <path d="M136.564927,161.304444 L148.034902,137.025842 L199.070281,172.753131 L253.353643,179.556726 L253.353643,195.024168 L197.322647,197.040067 C193.154747,197.190021 189.044235,196.03327 185.566236,193.731662 L136.564927,161.304444 Z" id="Shape" fill="#211D41"></path>
            <path d="M167.118778,497.446178 L138.195099,497.446178 L120.818977,372.409844 L64.6757092,336.310596 C32.9275503,315.897024 17.1943041,277.914273 25.2086099,241.03026 L117.413449,267.372079 L173.441353,353.959042 C175.679725,357.41828 176.73295,361.5114 176.442264,365.621405 L167.118778,497.446178 Z" id="Shape" fill="url(#linearGradient-16)"></path>
            <path d="M244.307168,173.47322 L263.157413,174.434309 L271.232918,153.216516 C272.325242,150.290978 273.54082,148.828208 274.879655,148.828208 C276.887907,148.828208 277.117101,153.078235 277.002504,157.354747 C276.938102,159.758083 276.188153,168.258963 274.752656,182.857385 C274.258834,187.879319 270.100834,191.746492 265.056328,191.875509 L242.354942,192.456114 L244.307168,173.47322 Z" id="Shape" fill="#211D41"></path>
            <path d="M245.307168,166.47322 L264.157413,167.434309 L272.232918,146.216516 C273.325242,143.290978 274.54082,141.828208 275.879655,141.828208 C277.887907,141.828208 278.117101,146.078235 278.002504,150.354747 C277.938102,152.758083 277.188153,161.258963 275.752656,175.857385 C275.258834,180.879319 271.100834,184.746492 266.056328,184.875509 L243.354942,185.456114 L245.307168,166.47322 Z" id="Shape" fill="#E9A17C"></path>
            <path d="M137.133699,93.8203337 L113.343317,87.4294052 L115.723042,76.2336813 C109.008905,64.4391311 109.008905,49.714365 115.723042,32.0593832 C122.437179,14.4044014 138.961675,11.0964771 165.296531,22.1356102 L165.296531,38.8514306 L169.533956,50.8717473 L163.801913,52.5991281 C163.005976,56.8324718 162.48927,59.620381 162.251796,60.9628557 C161.106477,67.4375096 157.565325,71.8428888 150.025633,71.8428888 C144.999172,71.8428888 140.701861,79.1687038 137.133699,93.8203337 Z" id="Shape" fill="#E9A17C"></path>
            <path d="M123.690619,83.2075253 C138.050137,87.5199767 167.219698,111.653308 211.199304,155.60752 L253.6476,161.056721 L253.6476,187.801224 L203.059847,187.801224 C197.467079,187.801224 192.002456,186.126367 187.370193,182.992488 C176.56226,175.680566 165.754328,168.368643 154.946396,161.056721 C151.181068,169.938166 144.641062,176.232672 135.326378,179.940239 L117.429492,267.565144 L23.1458633,242.301922 L58.0570212,112.310672 C62.5407111,95.6157102 76.7955306,83.373085 93.9761158,81.4618775 C105.603698,80.168398 115.508532,80.7502806 123.690619,83.2075253 Z" id="Shape" fill="url(#linearGradient-17)"></path>
            <path d="M61.9140927,260.611561 L62.6629596,259.948841 L67.302003,265.190909 L66.5531362,265.853629 L61.9140927,260.611561 Z M73.1803412,273.342298 L73.929208,272.679577 L78.5682515,277.921645 L77.8193846,278.584366 L73.1803412,273.342298 Z M84.4465896,286.073034 L85.1954564,285.410314 L89.8344999,290.652381 L89.085633,291.315102 L84.4465896,286.073034 Z M95.712838,298.80377 L96.4617048,298.14105 L101.100748,303.383118 L100.351881,304.045838 L95.712838,298.80377 Z M106.979086,311.534507 L107.727953,310.871786 L112.366997,316.113854 L111.61813,316.776574 L106.979086,311.534507 Z M118.245335,324.265243 L118.994202,323.602522 L123.633245,328.84459 L122.884378,329.507311 L118.245335,324.265243 Z M129.511583,336.995979 L130.26045,336.333259 L134.899494,341.575327 L134.150627,342.238047 L129.511583,336.995979 Z M140.777832,349.726715 L141.526698,349.063995 L143.339219,351.112123 C144.299894,352.197675 145.180401,353.348422 145.975086,354.55571 L145.139802,355.105528 C144.371177,353.937832 143.519543,352.824819 142.590352,351.774843 L140.777832,349.726715 Z M149.097528,364.088789 L150.066971,363.843473 C150.649959,366.147328 150.962548,368.514727 150.995811,370.899479 L149.995908,370.913426 C149.963736,368.60685 149.6614,366.317098 149.097528,364.088789 Z M150.048365,380.931772 L151.048351,380.926651 L151.0842,387.926559 L150.084213,387.93168 L150.048365,380.931772 Z M150.135424,397.931549 L151.135411,397.926428 L151.171259,404.926336 L150.171272,404.931457 L150.135424,397.931549 Z M150.222484,414.931326 L151.222471,414.926205 L151.258319,421.926113 L150.258332,421.931234 L150.222484,414.931326 Z M150.309543,431.931103 L151.30953,431.925982 L151.345378,438.92589 L150.345391,438.931012 L150.309543,431.931103 Z M150.396603,448.93088 L151.39659,448.925759 L151.432438,455.925668 L150.432451,455.930789 L150.396603,448.93088 Z M150.483662,465.930658 L151.483649,465.925536 L151.519497,472.925445 L150.51951,472.930566 L150.483662,465.930658 Z" id="Shape" fill="#FFFFFF" fill-rule="nonzero"></path>
            <path d="M172.22052,23.8196685 C171.70624,31.0298244 167.631266,34.6108133 159.995596,34.5626351 C148.542093,34.4903679 136.124411,31.4669416 133.554164,40.596867 C130.983916,49.7267925 141.56036,65.6023677 129.311622,73.0536435 C117.062885,80.5049194 118.455748,93.8596697 124.559144,107.584569 C130.662539,121.309467 114.783611,144.864492 92.1511678,148.449119 C77.0628725,150.83887 67.5546831,145.358877 63.6265997,132.00914 C62.9169285,117.593497 67.0953732,105.322666 76.161934,95.1966496 C89.7617751,80.0076243 96.9527323,71.1387605 97.2590596,46.3454468 C97.5653868,21.552133 101.268432,5.4636486 124.559144,1.77476221 C147.849856,-1.91412418 152.446616,0.540048621 162.596259,5.53123928 C169.362688,8.85869972 172.570775,14.9548428 172.22052,23.8196685 Z" id="Shape" fill="url(#linearGradient-18)"></path>
        </g>
    </g>
</svg>