<?xml version="1.0" standalone="no"?><!DOCTYPE svg PUBLIC "-//W3C//DTD SVG 1.1//EN" "http://www.w3.org/Graphics/SVG/1.1/DTD/svg11.dtd"><svg t="1641358007821" class="icon" viewBox="0 0 1024 1024" version="1.1" xmlns="http://www.w3.org/2000/svg" p-id="3255" xmlns:xlink="http://www.w3.org/1999/xlink" width="200" height="200"><defs><style type="text/css"></style></defs><path d="M864 992H160l-96-128h896zM432 156C432 109.6 512 16 512 16s80 93.6 80 140S556.16 240 512 240s-80-37.6-80-84z" fill="#E0EBFE" p-id="3256"></path><path d="M960 832h-253.536V256a32 32 0 0 0-32-32h-92.48c16-17.888 26.016-41.664 26.016-68 0-50.816-75.264-140.352-83.84-150.4a16.512 16.512 0 0 0-24.32 0C491.264 15.68 416 105.184 416 156c0 26.336 10.016 50.112 26.016 68h-92.48a32 32 0 0 0-32 32v576H64a32 32 0 0 0-25.6 51.2l96 128c6.048 8.064 15.52 12.8 25.6 12.8h704a31.936 31.936 0 0 0 25.6-12.8l96-128A32 32 0 0 0 960 832zM512 41.216c28.608 36.064 64 89.152 64 114.784C576 193.504 547.296 224 512 224s-64-30.496-64-68c0-25.632 35.392-78.72 64-114.784zM381.536 288h260.928v544h-260.928V288zM848 960h-672L128 896h768l-48 64z" fill="#5465CF" p-id="3257"></path><path d="M560 624a16 16 0 0 0-16 16v128a16 16 0 1 0 32 0v-128a16 16 0 0 0-16-16zM464 336a16 16 0 0 0-16 16v64a16 16 0 1 0 32 0v-64a16 16 0 0 0-16-16z" fill="#5465CF" p-id="3258"></path></svg>