<?xml version="1.0" encoding="utf-8"?>
<!-- Generator: Adobe Illustrator 23.0.0, SVG Export Plug-In . SVG Version: 6.00 Build 0)  -->
<svg version="1.1" id="图层_1" xmlns="http://www.w3.org/2000/svg" xmlns:xlink="http://www.w3.org/1999/xlink" x="0px" y="0px"
	 viewBox="0 0 300 300" style="enable-background:new 0 0 300 300;" xml:space="preserve">
<style type="text/css">
	.st0{fill:none;stroke:#A557CF;stroke-width:1.1285;stroke-miterlimit:10;}
	.st1{fill:url(#SVGID_1_);}
	.st2{fill:#FFFFFF;stroke:#3FA9F5;stroke-miterlimit:10;}
	.st3{opacity:0.2;fill:url(#SVGID_2_);}
	.st4{fill:#716CF5;}
	.st5{opacity:0.5;fill:url(#SVGID_3_);}
	.st6{fill:#6CE1F5;}
	.st7{opacity:0.4;fill:url(#SVGID_4_);}
	.st8{fill:#6CF59E;}
	.st9{opacity:0.4;fill:url(#SVGID_5_);}
	.st10{opacity:0.3;fill-rule:evenodd;clip-rule:evenodd;fill:#111440;}
	.st11{fill-rule:evenodd;clip-rule:evenodd;fill:url(#SVGID_6_);}
	.st12{fill-rule:evenodd;clip-rule:evenodd;fill:url(#SVGID_7_);}
	.st13{fill-rule:evenodd;clip-rule:evenodd;fill:url(#SVGID_8_);}
	.st14{fill-rule:evenodd;clip-rule:evenodd;fill:#ECF3F8;}
	.st15{fill-rule:evenodd;clip-rule:evenodd;fill:url(#SVGID_9_);}
	.st16{fill-rule:evenodd;clip-rule:evenodd;fill:#2156C9;}
	.st17{fill:url(#SVGID_10_);}
	.st18{fill:#C68620;}
	.st19{fill:#FFCD2E;}
	.st20{fill:#E8CFAC;}
	.st21{fill:#8D929A;}
	.st22{fill:#FFFFFF;}
	.st23{opacity:0.3;fill:url(#SVGID_11_);}
	.st24{fill:url(#SVGID_12_);}
	.st25{fill:url(#SVGID_13_);}
	.st26{fill:url(#SVGID_14_);}
	.st27{opacity:0.5;fill:url(#SVGID_15_);}
	.st28{opacity:0.5;fill:url(#SVGID_16_);}
	.st29{fill:url(#SVGID_17_);}
	.st30{fill:url(#SVGID_18_);}
	.st31{fill:url(#SVGID_19_);}
	.st32{fill:url(#SVGID_20_);}
	.st33{fill:url(#SVGID_21_);}
	.st34{fill:url(#SVGID_22_);}
	.st35{fill:url(#SVGID_23_);}
	.st36{fill:url(#SVGID_24_);}
	.st37{fill:url(#SVGID_25_);}
	.st38{fill:url(#SVGID_26_);}
	.st39{fill:url(#SVGID_27_);}
	.st40{fill:url(#SVGID_28_);}
	.st41{fill:url(#SVGID_29_);}
	.st42{fill:url(#SVGID_30_);}
	.st43{fill:url(#SVGID_31_);}
	.st44{fill:url(#SVGID_32_);}
	.st45{fill:url(#SVGID_33_);}
	.st46{fill:url(#SVGID_34_);}
	.st47{fill:url(#SVGID_35_);}
	.st48{fill:url(#SVGID_36_);}
	.st49{fill:url(#SVGID_37_);}
	.st50{fill:url(#SVGID_38_);}
	.st51{fill:url(#SVGID_39_);}
	.st52{fill:url(#SVGID_40_);}
	.st53{fill:url(#SVGID_41_);}
	.st54{fill:url(#SVGID_42_);}
	.st55{fill:url(#SVGID_43_);}
	.st56{fill:url(#SVGID_44_);}
	.st57{fill:url(#SVGID_45_);}
	.st58{fill:url(#SVGID_46_);}
	.st59{fill:url(#SVGID_47_);}
	.st60{fill:url(#SVGID_48_);}
	.st61{fill:url(#SVGID_49_);}
	.st62{fill:url(#SVGID_50_);}
	.st63{fill:url(#SVGID_51_);}
	.st64{fill:url(#SVGID_52_);}
	.st65{fill:url(#SVGID_53_);}
	.st66{fill:url(#SVGID_54_);}
	.st67{fill:url(#SVGID_55_);}
	.st68{fill:url(#SVGID_56_);}
	.st69{fill:url(#SVGID_57_);}
	.st70{fill:url(#SVGID_58_);}
</style>
<g>
	<line class="st0" x1="95.01" y1="76.69" x2="95.01" y2="184.12"/>
	<line class="st0" x1="105.53" y1="66.43" x2="105.53" y2="173.86"/>
	<line class="st0" x1="116.05" y1="53.6" x2="116.05" y2="161.03"/>
	<line class="st0" x1="126.57" y1="45.9" x2="126.57" y2="153.33"/>
	<g id="cloud_1_">
		
			<linearGradient id="SVGID_1_" gradientUnits="userSpaceOnUse" x1="5691.3589" y1="49.5025" x2="5774.187" y2="49.5025" gradientTransform="matrix(-1 0 0 1 5839.3848 0)">
			<stop  offset="0" style="stop-color:#3282ED"/>
			<stop  offset="1" style="stop-color:#60A2F0"/>
		</linearGradient>
		<path class="st1" d="M65.2,72.03c0,4.77,1.64,8.07,4.21,9.39l11.21,7.7l1.42-1.81l0.49-0.63c0,0-0.08-0.1-0.2-0.24
			c-0.22-0.27-0.55-0.67-0.57-0.69c-0.01-0.01-0.43-0.31-0.99-0.7c0.25-0.12,0.5-0.26,0.75-0.4c0.24-0.14,0.48-0.29,0.72-0.44
			l0.97-0.56l50.21-28.99c0.24-0.11,0.48-0.24,0.72-0.38c6.26-3.61,11.35-13.26,11.44-21.63c0-0.08,0-0.16,0-0.24
			c0-0.04,0-0.08,0-0.13c-0.01-1.58-0.2-3-0.55-4.24c1.22-0.45,2.98-1.09,3-1.09c0-0.01-10.08-7.05-11.13-7.66
			c-0.03-0.02-0.05-0.03-0.07-0.04c-0.03-0.02-0.06-0.04-0.09-0.05c-0.01-0.01-0.01-0.01-0.02-0.01c-2-1.14-4.61-1.02-7.45,0.62
			c-0.14,0.08-0.28,0.17-0.42,0.25c-0.08-1.83,7.78,0.01,7.28-1.36l-11.47-7.81l-0.01-0.01c-2.26-1.4-5.25-1.32-8.52,0.57
			c-1.54,0.89-3.01,2.1-4.37,3.55l-4.43-2.68c-0.02-0.01-0.05-0.03-0.07-0.04c-1.62-0.94-3.47-1.42-5.49-1.39h0
			c-0.61,0.01-1.24,0.07-1.89,0.17c-0.35,0.05-0.7,0.13-1.05,0.21c-1.63,0.39-3.33,1.08-5.08,2.09
			c-7.14,4.13-13.44,12.61-17.15,22.11c-2.2,5.65-3.49,11.65-3.49,17.32c0,0.07,0,0.13,0.01,0.2c-0.01,0.01-0.01,0.01-0.01,0.01
			C68.5,57.61,65.2,65.26,65.2,72.03z"/>
		<path class="st2" d="M76.83,80.1c0.07,8.43,5.23,12.25,11.52,8.55c0.24-0.14,0.48-0.29,0.71-0.45l50.92-30
			c0.24-0.12,0.47-0.25,0.71-0.39c6.29-3.7,11.33-13.54,11.25-21.97s-5.23-12.25-11.52-8.55c-0.14,0.08-0.28,0.17-0.42,0.26
			c-0.48-8.67-6.06-12.48-12.81-8.5c-1.81,1.07-3.53,2.59-5.09,4.43c-3.73-5.33-10.1-6.55-17.28-2.32
			c-11.34,6.68-20.42,24.41-20.29,39.6c0,0.07,0,0.13,0,0.2C80.02,65.64,76.77,73.33,76.83,80.1z"/>
		
			<linearGradient id="SVGID_2_" gradientUnits="userSpaceOnUse" x1="5724.8047" y1="8.5665" x2="5699.9043" y2="43.807" gradientTransform="matrix(-1 0 0 1 5839.3848 0)">
			<stop  offset="0" style="stop-color:#FFFFFF"/>
			<stop  offset="1" style="stop-color:#FFFFFF;stop-opacity:0"/>
		</linearGradient>
		<path class="st3" d="M104.28,21.51c9.07,13.96,20.42,30.97,27.5,41.53l8.21-4.84c0.24-0.12,0.48-0.25,0.71-0.39
			c6.29-3.71,11.33-13.54,11.25-21.97c-0.07-8.43-5.23-12.26-11.52-8.55c-0.14,0.08-0.28,0.17-0.42,0.26
			c-0.48-8.67-6.06-12.48-12.81-8.5c-1.81,1.07-3.53,2.59-5.08,4.43c-3.73-5.33-10.1-6.55-17.28-2.32
			C104.65,21.28,104.46,21.39,104.28,21.51z"/>
	</g>
	<path class="st4" d="M93.64,107.53L93.64,107.53c-0.75-0.75-0.75-1.97,0-2.72l0,0c0.75-0.75,1.97-0.75,2.72,0l0,0
		c0.75,0.75,0.75,1.97,0,2.72l0,0C95.61,108.28,94.39,108.28,93.64,107.53z"/>
	<linearGradient id="SVGID_3_" gradientUnits="userSpaceOnUse" x1="94.982" y1="106.4525" x2="94.982" y2="125.0447">
		<stop  offset="3.636364e-03" style="stop-color:#716CF5"/>
		<stop  offset="1" style="stop-color:#716CF5;stop-opacity:0"/>
	</linearGradient>
	<rect x="92.63" y="106.06" class="st5" width="4.71" height="19.12"/>
	<path class="st6" d="M117.17,126.4L117.17,126.4c0.66,0.66,0.66,1.73,0,2.4l0,0c-0.66,0.66-1.73,0.66-2.4,0l0,0
		c-0.66-0.66-0.66-1.73,0-2.4v0C115.43,125.74,116.51,125.74,117.17,126.4z"/>
	
		<linearGradient id="SVGID_4_" gradientUnits="userSpaceOnUse" x1="5709.1377" y1="-806.0323" x2="5709.1377" y2="-789.6531" gradientTransform="matrix(-1 0 0 -1 5825.1274 -678.6804)">
		<stop  offset="0" style="stop-color:#6CE1F5"/>
		<stop  offset="1" style="stop-color:#6CE1F5;stop-opacity:0"/>
	</linearGradient>
	<polygon class="st7" points="113.92,110.85 118.06,110.85 118.06,127.69 113.92,127.69 	"/>
	<path class="st8" d="M127.71,106.66L127.71,106.66c0.63,0.63,0.63,1.66,0,2.29l0,0c-0.63,0.63-1.66,0.63-2.29,0l0,0
		c-0.63-0.63-0.63-1.66,0-2.29l0,0C126.05,106.03,127.08,106.03,127.71,106.66z"/>
	
		<linearGradient id="SVGID_5_" gradientUnits="userSpaceOnUse" x1="5698.5454" y1="-774.2449" x2="5698.5454" y2="-758.6179" gradientTransform="matrix(-1 0 0 -1 5825.1274 -678.6804)">
		<stop  offset="3.636364e-03" style="stop-color:#6CF59E"/>
		<stop  offset="1" style="stop-color:#6CF59E;stop-opacity:0"/>
	</linearGradient>
	<polygon class="st9" points="124.6,79.82 128.56,79.82 128.56,95.89 124.6,95.89 	"/>
	<path class="st10" d="M74.97,248.81l111.16-64.45c2.28-1.32,5.71-1.48,7.66-0.36l67,38.51c1.95,1.12,1.69,3.1-0.59,4.42
		l-111.16,64.45c-2.28,1.32-5.71,1.48-7.66,0.36l-67-38.51C72.42,252.11,72.69,250.13,74.97,248.81z"/>
	
		<linearGradient id="SVGID_6_" gradientUnits="userSpaceOnUse" x1="70.6594" y1="152.2518" x2="190.4576" y2="152.2518" gradientTransform="matrix(1 -1.870793e-03 1.870793e-03 1 -0.9984 -0.1642)">
		<stop  offset="0" style="stop-color:#5FB5F7"/>
		<stop  offset="1" style="stop-color:#2E7FEB"/>
	</linearGradient>
	<path class="st11" d="M74.04,134.17l111.42-64.45c2.28-1.32,4.13-0.27,4.13,2.35l0.17,90.32c0,2.62-1.84,5.81-4.11,7.13
		L74.23,233.97c-2.28,1.32-4.13,0.27-4.13-2.35l-0.17-90.32C69.92,138.68,71.76,135.49,74.04,134.17z"/>
	
		<linearGradient id="SVGID_7_" gradientUnits="userSpaceOnUse" x1="128.2502" y1="259.6644" x2="167.8993" y2="225.3527" gradientTransform="matrix(1 -1.870793e-03 1.870793e-03 1 -0.9984 -0.1642)">
		<stop  offset="0" style="stop-color:#3985BF"/>
		<stop  offset="1" style="stop-color:#1567D4"/>
	</linearGradient>
	<path class="st12" d="M261.48,206.18l-67.13-34.11c-1.95-1.12-5.38-0.96-7.66,0.36L78.97,234.89l-5.34,0.01l0.01,4.34
		c-0.08,0.78,0.35,1.53,1.3,2.07l67,38.51c1.95,1.12,5.38,0.96,7.66-0.36l111.16-64.45C263.03,213.69,264.2,207.54,261.48,206.18z"
		/>
	<linearGradient id="SVGID_8_" gradientUnits="userSpaceOnUse" x1="70.6694" y1="152.6368" x2="190.2415" y2="152.6368">
		<stop  offset="0" style="stop-color:#3282ED"/>
		<stop  offset="1" style="stop-color:#60A2F0"/>
	</linearGradient>
	<path class="st13" d="M74.78,135.23l111.16-64.45c2.28-1.32,4.13-0.27,4.13,2.35l0.17,89.79c0,2.62-1.84,5.81-4.11,7.13
		L74.97,234.5c-2.28,1.32-4.13,0.27-4.13-2.35l-0.17-89.79C70.66,139.74,72.51,136.55,74.78,135.23z"/>
	<path class="st14" d="M75.32,223.89l-0.16-83.17c0-0.52,0.36-1.15,0.81-1.41l108.78-63.08c0.45-0.26,0.82-0.05,0.82,0.46
		l0.16,83.17c0,0.52-0.36,1.15-0.81,1.41L76.14,224.36C75.69,224.62,75.33,224.41,75.32,223.89z"/>
	
		<linearGradient id="SVGID_9_" gradientUnits="userSpaceOnUse" x1="74.1847" y1="221.8993" x2="263.2491" y2="221.8993" gradientTransform="matrix(1 -1.870793e-03 1.870793e-03 1 -0.9984 -0.1642)">
		<stop  offset="0" style="stop-color:#3282ED"/>
		<stop  offset="1" style="stop-color:#60A2F0"/>
	</linearGradient>
	<path class="st15" d="M75.52,232.36l111.16-64.45c2.28-1.32,5.71-1.48,7.66-0.36l67,38.51c1.95,1.12,1.69,3.1-0.59,4.42
		l-111.16,64.45c-2.28,1.32-5.71,1.48-7.66,0.36l-67-38.51C72.98,235.66,73.25,233.68,75.52,232.36z"/>
	<path class="st16" d="M216.77,228.22l-36.65,21.25c-0.86,0.5-2.38,0.44-3.38-0.13l-16.87-9.7c-1-0.57-1.11-1.45-0.25-1.95
		l36.65-21.25c0.86-0.5,2.38-0.44,3.38,0.13l16.87,9.7C217.53,226.85,217.64,227.72,216.77,228.22z"/>
	
		<linearGradient id="SVGID_10_" gradientUnits="userSpaceOnUse" x1="189.996" y1="243.7232" x2="219.7576" y2="243.7232" gradientTransform="matrix(1 -1.870793e-03 1.870793e-03 1 -0.9984 -0.1642)">
		<stop  offset="0" style="stop-color:#5FB5F7"/>
		<stop  offset="1" style="stop-color:#2E7FEB"/>
	</linearGradient>
	<path class="st17" d="M219.18,234.56c-0.22-0.01-0.45-0.01-0.69,0.01c-0.69,0.07-1.43,0.28-2.05,0.64l-25.84,14.98
		c-0.83,0.48-1.22,1.08-1.12,1.58c0.22,0.01,0.45,0.01,0.69-0.01c0.7-0.07,1.43-0.28,2.05-0.64l25.84-14.98
		C218.89,235.67,219.28,235.06,219.18,234.56z"/>
	<g>
		<g>
			<g>
				<g>
					<path class="st16" d="M224.09,193.19l-5.32,3.07c-0.31,0.18-0.79,0.2-1.06,0.04l-1.44-0.83c-0.27-0.16-0.24-0.43,0.07-0.61
						l5.32-3.07c0.31-0.18,0.79-0.2,1.06-0.04l1.44,0.83C224.43,192.74,224.4,193.01,224.09,193.19z M216.47,189.95l-13.1,7.58
						c-0.31,0.18-0.79,0.2-1.06,0.04l-4.32-2.5c-0.27-0.16-0.24-0.43,0.07-0.61l13.1-7.59c0.31-0.18,0.79-0.2,1.06-0.04l4.32,2.51
						C216.82,189.5,216.79,189.77,216.47,189.95z M209.82,186.09l-9.49,5.5c-0.31,0.18-0.79,0.2-1.06,0.04l-4.32-2.5
						c-0.27-0.16-0.24-0.43,0.07-0.62l9.49-5.51c0.31-0.18,0.79-0.2,1.06-0.04l4.33,2.51C210.16,185.64,210.13,185.91,209.82,186.09
						z M203.16,182.23l-4.92,2.85c-0.31,0.18-0.79,0.2-1.06,0.04l-4.33-2.51c-0.27-0.16-0.25-0.44,0.07-0.62l4.92-2.86
						c0.31-0.18,0.79-0.2,1.06-0.04l4.33,2.51C203.5,181.77,203.47,182.05,203.16,182.23z M195.75,186.52l-4.91,2.85
						c-0.31,0.18-0.79,0.2-1.06,0.04l-4.33-2.51c-0.27-0.16-0.25-0.43,0.07-0.62l4.91-2.85c0.31-0.18,0.79-0.2,1.06-0.04l4.33,2.51
						C196.1,186.07,196.07,186.34,195.75,186.52z M188.37,190.81l-4.9,2.84c-0.31,0.18-0.79,0.2-1.06,0.04l-4.33-2.5
						c-0.27-0.16-0.25-0.43,0.07-0.61l4.9-2.85c0.31-0.18,0.79-0.2,1.06-0.04l4.33,2.51C188.71,190.36,188.68,190.63,188.37,190.81z
						 M180.99,195.09l-4.89,2.84c-0.31,0.18-0.78,0.2-1.06,0.04l-4.33-2.5c-0.27-0.16-0.25-0.43,0.06-0.61l4.89-2.84
						c0.31-0.18,0.79-0.2,1.06-0.04l4.33,2.5C181.33,194.64,181.3,194.91,180.99,195.09z M173.63,199.37l-4.88,2.83
						c-0.31,0.18-0.78,0.2-1.06,0.04l-4.33-2.5c-0.27-0.16-0.25-0.43,0.06-0.61l4.88-2.84c0.31-0.18,0.78-0.2,1.06-0.04l4.33,2.5
						C173.96,198.91,173.94,199.19,173.63,199.37z M166.27,203.64l-4.88,2.83c-0.31,0.18-0.78,0.2-1.06,0.04l-4.32-2.49
						c-0.27-0.16-0.25-0.43,0.06-0.61l4.87-2.83c0.31-0.18,0.78-0.2,1.06-0.04l4.33,2.49C166.61,203.18,166.58,203.46,166.27,203.64
						z M158.94,207.9l-4.87,2.83c-0.31,0.18-0.78,0.2-1.06,0.04l-4.32-2.49c-0.27-0.16-0.25-0.43,0.06-0.61l4.87-2.83
						c0.31-0.18,0.78-0.2,1.06-0.04l4.32,2.49C159.27,207.44,159.24,207.72,158.94,207.9z M151.61,212.15l-4.86,2.82
						c-0.31,0.18-0.78,0.2-1.05,0.04l-4.32-2.48c-0.27-0.16-0.25-0.43,0.06-0.61l4.86-2.82c0.31-0.18,0.78-0.2,1.06-0.04l4.32,2.49
						C151.95,211.7,151.92,211.97,151.61,212.15z M144.3,216.39l-4.85,2.82c-0.31,0.18-0.78,0.2-1.05,0.04l-4.32-2.48
						c-0.27-0.16-0.25-0.43,0.06-0.61l4.85-2.82c0.31-0.18,0.78-0.2,1.05-0.04l4.32,2.48C144.63,215.94,144.6,216.22,144.3,216.39z
						 M137.05,220.03c0.27,0.16,0.25,0.43-0.06,0.61l-4.84,2.81c-0.31,0.18-0.78,0.2-1.05,0.04l-4.32-2.48
						c-0.27-0.16-0.25-0.43,0.06-0.61l4.84-2.81c0.31-0.18,0.78-0.2,1.05-0.04L137.05,220.03z M129.76,224.26
						c0.27,0.16,0.25,0.43-0.06,0.61l-4.83,2.81c-0.31,0.18-0.78,0.2-1.05,0.04l-4.32-2.47c-0.27-0.16-0.25-0.43,0.06-0.61
						l4.83-2.81c0.31-0.18,0.78-0.2,1.05-0.04L129.76,224.26z M122.49,228.48c0.27,0.16,0.25,0.43-0.06,0.61l-4.83,2.8
						c-0.31,0.18-0.78,0.19-1.05,0.04l-4.32-2.47c-0.27-0.16-0.25-0.43,0.06-0.61l4.83-2.8c0.31-0.18,0.78-0.2,1.05-0.04
						L122.49,228.48z M115.22,232.7c0.27,0.16,0.25,0.43-0.06,0.61l-4.82,2.8c-0.31,0.18-0.78,0.19-1.05,0.04l-4.32-2.47
						c-0.27-0.16-0.25-0.43,0.06-0.61l4.82-2.8c0.31-0.18,0.78-0.19,1.05-0.04L115.22,232.7z M107.97,236.91
						c0.27,0.16,0.25,0.43-0.06,0.6l-7.46,4.33c-0.3,0.18-0.77,0.19-1.05,0.04l-4.32-2.46c-0.27-0.16-0.25-0.43,0.06-0.6l7.46-4.34
						c0.31-0.18,0.78-0.19,1.05-0.04L107.97,236.91z M196.54,178.42l-4.92,2.85c-0.31,0.18-0.79,0.2-1.06,0.04l-2.49-1.45
						c-0.27-0.16-0.25-0.44,0.07-0.62l4.92-2.86c0.31-0.18,0.79-0.2,1.06-0.04l2.49,1.46C196.89,177.97,196.85,178.24,196.54,178.42
						z M189.14,182.72l-4.91,2.85c-0.31,0.18-0.79,0.2-1.06,0.04l-2.49-1.45c-0.27-0.16-0.25-0.43,0.07-0.62l4.91-2.85
						c0.31-0.18,0.79-0.2,1.06-0.04l2.49,1.45C189.48,182.26,189.45,182.54,189.14,182.72z M181.75,187.01l-4.9,2.84
						c-0.31,0.18-0.79,0.2-1.06,0.04l-2.49-1.45c-0.27-0.16-0.25-0.43,0.07-0.61l4.9-2.85c0.31-0.18,0.79-0.2,1.06-0.04l2.49,1.45
						C182.09,186.55,182.06,186.83,181.75,187.01z M174.38,191.29l-4.89,2.84c-0.31,0.18-0.78,0.2-1.06,0.04l-2.49-1.44
						c-0.27-0.16-0.25-0.43,0.06-0.61l4.89-2.84c0.31-0.18,0.79-0.2,1.06-0.04l2.49,1.45C174.72,190.84,174.69,191.11,174.38,191.29
						z M167.01,195.57l-4.88,2.83c-0.31,0.18-0.78,0.2-1.06,0.04l-2.49-1.44c-0.27-0.16-0.25-0.43,0.06-0.61l4.88-2.84
						c0.31-0.18,0.78-0.2,1.06-0.04l2.49,1.44C167.35,195.11,167.32,195.39,167.01,195.57z M159.66,199.83l-4.88,2.83
						c-0.31,0.18-0.78,0.2-1.06,0.04l-2.49-1.44c-0.27-0.16-0.25-0.43,0.06-0.61l4.87-2.83c0.31-0.18,0.78-0.2,1.06-0.04l2.49,1.44
						C160,199.38,159.97,199.65,159.66,199.83z M152.32,204.09l-4.87,2.83c-0.31,0.18-0.78,0.2-1.06,0.04l-2.49-1.43
						c-0.27-0.16-0.25-0.43,0.06-0.61l4.87-2.83c0.31-0.18,0.78-0.2,1.06-0.04l2.49,1.43C152.66,203.64,152.63,203.92,152.32,204.09
						z M145,208.35l-4.86,2.82c-0.31,0.18-0.78,0.2-1.05,0.04l-2.49-1.43c-0.27-0.16-0.25-0.43,0.06-0.61l4.86-2.82
						c0.31-0.18,0.78-0.2,1.06-0.04l2.49,1.43C145.33,207.9,145.3,208.17,145,208.35z M137.68,212.59l-4.85,2.82
						c-0.31,0.18-0.78,0.2-1.05,0.04l-2.48-1.42c-0.27-0.16-0.25-0.43,0.06-0.61l4.85-2.82c0.31-0.18,0.78-0.2,1.05-0.04l2.49,1.43
						C138.02,212.14,137.99,212.41,137.68,212.59z M130.44,216.22c0.27,0.16,0.25,0.43-0.06,0.61l-4.84,2.81
						c-0.31,0.18-0.78,0.2-1.05,0.04l-2.48-1.42c-0.27-0.16-0.25-0.43,0.06-0.61l4.84-2.81c0.31-0.18,0.78-0.2,1.05-0.04
						L130.44,216.22z M123.15,220.46c0.27,0.16,0.25,0.43-0.06,0.61l-4.83,2.81c-0.31,0.18-0.78,0.2-1.05,0.04l-2.48-1.42
						c-0.27-0.16-0.25-0.43,0.06-0.61l4.83-2.81c0.31-0.18,0.78-0.2,1.05-0.04L123.15,220.46z M115.87,224.68
						c0.27,0.16,0.25,0.43-0.06,0.61l-4.83,2.8c-0.31,0.18-0.78,0.19-1.05,0.04l-2.48-1.41c-0.27-0.16-0.25-0.43,0.06-0.61l4.83-2.8
						c0.31-0.18,0.78-0.2,1.05-0.04L115.87,224.68z M108.61,228.9c0.27,0.16,0.25,0.43-0.06,0.61l-4.82,2.8
						c-0.31,0.18-0.78,0.19-1.05,0.04l-2.48-1.41c-0.27-0.16-0.25-0.43,0.06-0.61l4.82-2.8c0.31-0.18,0.78-0.19,1.05-0.04
						L108.61,228.9z M101.36,233.11c0.27,0.16,0.25,0.43-0.06,0.6l-7.46,4.33c-0.3,0.18-0.77,0.19-1.05,0.04l-2.48-1.4
						c-0.27-0.16-0.25-0.43,0.06-0.6l7.46-4.34c0.31-0.18,0.78-0.19,1.05-0.04L101.36,233.11z M112.02,236.67
						c0.31-0.18,0.78-0.19,1.05-0.04l4.31,2.46c0.27,0.16,0.25,0.43-0.06,0.6l-10.23,5.93c-0.31,0.18-0.77,0.19-1.05,0.04
						l-4.31-2.46c-0.27-0.16-0.25-0.43,0.06-0.6L112.02,236.67z M122.37,238.32c0.31-0.18,0.78-0.19,1.05-0.04l4.31,2.46
						c0.27,0.16,0.25,0.43-0.06,0.6l-13.94,8.07c-0.31,0.18-0.77,0.19-1.05,0.04l-4.31-2.46c-0.27-0.16-0.25-0.43,0.06-0.6
						L122.37,238.32z M119.82,247.37c0.31-0.18,0.77-0.19,1.05-0.04l4.3,2.46c0.27,0.16,0.25,0.43-0.06,0.6l-4.81,2.78
						c-0.31,0.18-0.77,0.19-1.05,0.04l-4.3-2.45c-0.27-0.16-0.25-0.43,0.06-0.6L119.82,247.37z M122.2,246.56
						c-0.27-0.16-0.25-0.43,0.06-0.6l4.82-2.79c0.31-0.18,0.78-0.19,1.05-0.04l4.3,2.46c0.27,0.16,0.25,0.43-0.06,0.6l-4.82,2.78
						c-0.31,0.18-0.77,0.19-1.05,0.04L122.2,246.56z M129.45,242.36c-0.27-0.16-0.25-0.43,0.06-0.6l6.21-3.59
						c0.31-0.18,0.78-0.19,1.05-0.04l4.3,2.46c0.27,0.16,0.25,0.43-0.06,0.6l-6.21,3.59c-0.31,0.18-0.78,0.19-1.05,0.04
						L129.45,242.36z M124.58,235.5l-4.82,2.79c-0.31,0.18-0.78,0.19-1.05,0.04l-4.31-2.46c-0.27-0.16-0.25-0.43,0.06-0.6l4.82-2.8
						c0.31-0.18,0.78-0.19,1.05-0.04l4.31,2.47C124.91,235.05,124.89,235.32,124.58,235.5z M129.06,239.97l-4.31-2.46
						c-0.27-0.16-0.25-0.43,0.06-0.6l4.83-2.8c0.31-0.18,0.78-0.19,1.05-0.04l4.31,2.47c0.27,0.16,0.25,0.43-0.06,0.6l-4.83,2.79
						C129.8,240.11,129.33,240.13,129.06,239.97z M138.11,237.36c-0.27-0.16-0.25-0.43,0.06-0.6l7.06-4.08
						c0.31-0.18,0.78-0.19,1.05-0.04l4.31,2.47c0.27,0.16,0.25,0.43-0.06,0.61l-7.06,4.08c-0.31,0.18-0.78,0.19-1.05,0.04
						L138.11,237.36z M128.93,227.43c-0.27-0.16-0.25-0.43,0.06-0.61l4.84-2.81c0.31-0.18,0.78-0.2,1.05-0.04l4.32,2.47
						c0.27,0.16,0.25,0.43-0.06,0.61l-4.84,2.8c-0.31,0.18-0.78,0.19-1.05,0.04L128.93,227.43z M131.85,231.28l-4.83,2.8
						c-0.31,0.18-0.78,0.19-1.05,0.04l-4.31-2.47c-0.27-0.16-0.25-0.43,0.06-0.61l4.83-2.8c0.31-0.18,0.78-0.2,1.05-0.04l4.31,2.47
						C132.18,230.83,132.16,231.11,131.85,231.28z M137.96,229.85l4.31,2.47c0.27,0.16,0.25,0.43-0.06,0.61l-4.84,2.8
						c-0.31,0.18-0.78,0.19-1.05,0.04l-4.31-2.47c-0.27-0.16-0.25-0.43,0.06-0.61l4.83-2.8
						C137.22,229.71,137.69,229.7,137.96,229.85z M143.61,231.55l-4.31-2.47c-0.27-0.16-0.25-0.43,0.06-0.61l4.84-2.81
						c0.31-0.18,0.78-0.2,1.05-0.04l4.31,2.47c0.27,0.16,0.25,0.43-0.06,0.61l-4.84,2.8C144.35,231.69,143.88,231.71,143.61,231.55z
						 M147.61,231.86c-0.27-0.16-0.25-0.43,0.06-0.61l31.12-18c0.31-0.18,0.78-0.2,1.06-0.04l4.31,2.48
						c0.27,0.16,0.24,0.43-0.07,0.61l-31.12,17.98c-0.31,0.18-0.78,0.19-1.05,0.04L147.61,231.86z M158.21,209.87l4.87-2.83
						c0.31-0.18,0.78-0.2,1.06-0.04l4.32,2.49c0.27,0.16,0.25,0.43-0.06,0.61l-4.87,2.82c-0.31,0.18-0.78,0.2-1.06,0.04l-4.32-2.49
						C157.87,210.32,157.9,210.05,158.21,209.87z M167.2,212.92l4.31,2.48c0.27,0.16,0.25,0.43-0.06,0.61l-4.87,2.82
						c-0.31,0.18-0.78,0.2-1.05,0.04l-4.31-2.48c-0.27-0.16-0.25-0.43,0.06-0.61l4.87-2.82
						C166.45,212.77,166.93,212.76,167.2,212.92z M150.88,214.12l4.86-2.82c0.31-0.18,0.78-0.2,1.06-0.04l4.32,2.49
						c0.27,0.16,0.25,0.43-0.06,0.61l-4.86,2.82c-0.31,0.18-0.78,0.2-1.05,0.04l-4.32-2.48
						C150.55,214.57,150.57,214.3,150.88,214.12z M159.87,217.16l4.31,2.48c0.27,0.16,0.25,0.43-0.06,0.61l-4.86,2.81
						c-0.31,0.18-0.78,0.2-1.05,0.04l-4.31-2.48c-0.27-0.16-0.25-0.43,0.06-0.61l4.86-2.82C159.13,217.02,159.6,217,159.87,217.16z
						 M143.51,218.97c-0.27-0.16-0.25-0.43,0.06-0.61l4.85-2.82c0.31-0.18,0.78-0.2,1.05-0.04l4.32,2.48
						c0.27,0.16,0.25,0.43-0.06,0.61l-4.85,2.81c-0.31,0.18-0.78,0.2-1.05,0.04L143.51,218.97z M146.43,222.83l-4.85,2.81
						c-0.31,0.18-0.78,0.2-1.05,0.04l-4.32-2.48c-0.27-0.16-0.25-0.43,0.06-0.61l4.85-2.81c0.31-0.18,0.78-0.2,1.05-0.04l4.32,2.48
						C146.76,222.38,146.74,222.66,146.43,222.83z M152.56,221.4l4.31,2.48c0.27,0.16,0.25,0.43-0.06,0.61l-4.85,2.81
						c-0.31,0.18-0.78,0.2-1.05,0.04l-4.31-2.47c-0.27-0.16-0.25-0.43,0.06-0.61l4.85-2.81
						C151.81,221.26,152.28,221.24,152.56,221.4z M172.86,214.62l-4.31-2.49c-0.27-0.16-0.25-0.43,0.06-0.61l4.88-2.82
						c0.31-0.18,0.78-0.2,1.06-0.04l4.32,2.49c0.27,0.16,0.24,0.43-0.07,0.61l-4.88,2.82C173.61,214.76,173.13,214.78,172.86,214.62
						z M181.26,211.82l7.02-4.06c0.31-0.18,0.78-0.2,1.06-0.04l4.31,2.49c0.27,0.16,0.24,0.43-0.07,0.61l-7.02,4.06
						c-0.31,0.18-0.78,0.2-1.06,0.04l-4.31-2.49C180.92,212.28,180.95,212,181.26,211.82z M172.89,201.35l4.89-2.84
						c0.31-0.18,0.78-0.2,1.06-0.04l4.32,2.5c0.27,0.16,0.24,0.43-0.07,0.61l-4.89,2.83c-0.31,0.18-0.78,0.2-1.06,0.04l-4.32-2.49
						C172.55,201.8,172.58,201.53,172.89,201.35z M170.85,208.68c-0.31,0.18-0.78,0.2-1.06,0.04l-4.32-2.49
						c-0.27-0.16-0.25-0.43,0.06-0.61l4.88-2.83c0.31-0.18,0.78-0.2,1.06-0.04l4.32,2.49c0.27,0.16,0.25,0.43-0.06,0.61
						L170.85,208.68z M181.89,204.4l4.32,2.49c0.27,0.16,0.24,0.43-0.07,0.61l-4.88,2.83c-0.31,0.18-0.78,0.2-1.06,0.04l-4.32-2.49
						c-0.27-0.16-0.25-0.43,0.06-0.61l4.88-2.83C181.15,204.26,181.62,204.24,181.89,204.4z M183.24,203.62
						c-0.27-0.16-0.24-0.43,0.07-0.61l4.89-2.83c0.31-0.18,0.78-0.2,1.06-0.04l4.32,2.5c0.27,0.16,0.24,0.43-0.07,0.61l-4.89,2.83
						c-0.31,0.18-0.78,0.2-1.06,0.04L183.24,203.62z M190.75,206.33l5.29-3.06c0.31-0.18,0.78-0.2,1.06-0.04l4.31,2.49
						c0.27,0.16,0.24,0.43-0.07,0.61l-5.29,3.06c-0.31,0.18-0.78,0.2-1.06,0.04l-4.31-2.49
						C190.41,206.79,190.44,206.51,190.75,206.33z M185.57,200.15c-0.31,0.18-0.78,0.2-1.06,0.04l-4.32-2.5
						c-0.27-0.16-0.25-0.43,0.07-0.61l4.9-2.84c0.31-0.18,0.79-0.2,1.06-0.04l4.32,2.5c0.27,0.16,0.24,0.43-0.07,0.61L185.57,200.15
						z M191.88,195.91l-4.32-2.5c-0.27-0.16-0.24-0.43,0.07-0.61l4.9-2.85c0.31-0.18,0.79-0.2,1.06-0.04l4.32,2.5
						c0.27,0.16,0.24,0.43-0.07,0.61l-4.9,2.84C192.63,196.06,192.15,196.07,191.88,195.91z M200.89,198.97l-4.9,2.84
						c-0.31,0.18-0.79,0.2-1.06,0.04l-4.32-2.5c-0.27-0.16-0.24-0.43,0.07-0.61l4.9-2.84c0.31-0.18,0.79-0.2,1.06-0.04l4.32,2.5
						C201.23,198.52,201.2,198.79,200.89,198.97z M201.33,203.54l5.3-3.06c0.31-0.18,0.79-0.2,1.06-0.04l1.44,0.83
						c0.27,0.16,0.24,0.43-0.07,0.61l-5.3,3.06c-0.31,0.18-0.79,0.2-1.06,0.04l-1.44-0.83
						C200.99,203.99,201.02,203.72,201.33,203.54z M205.86,197.42l5.31-3.07c0.31-0.18,0.79-0.2,1.06-0.04l1.24,0.72
						c0.27,0.16,0.24,0.43-0.07,0.61l-5.31,3.07c-0.31,0.18-0.79,0.2-1.06,0.04l-1.24-0.72
						C205.52,197.87,205.55,197.6,205.86,197.42z M208.99,199.23l5.31-3.07c0.31-0.18,0.79-0.2,1.06-0.04l1.34,0.78
						c0.27,0.16,0.24,0.43-0.07,0.61l-5.31,3.07c-0.31,0.18-0.79,0.2-1.06,0.04l-1.34-0.78
						C208.65,199.68,208.68,199.41,208.99,199.23z"/>
				</g>
			</g>
		</g>
	</g>
	<g>
		<path class="st18" d="M124.21,30.67c-0.03-0.01-0.04-0.03-0.07-0.04l-0.35-0.17l-0.09-0.04c-0.07-0.03-0.13-0.06-0.2-0.09
			c-0.04-0.01-0.09-0.03-0.13-0.06c-0.04-0.01-0.07-0.03-0.12-0.04c-0.13-0.04-0.27-0.1-0.42-0.14h-0.03
			c-0.13-0.04-0.27-0.07-0.42-0.1c-0.04-0.01-0.09-0.01-0.13-0.03c-0.04-0.01-0.09-0.01-0.13-0.03c-0.07-0.01-0.16-0.03-0.25-0.03
			c-0.03,0-0.06-0.01-0.1-0.01c-0.13-0.01-0.27-0.03-0.42-0.04h-0.82c-0.07,0-0.16,0.01-0.23,0.01c-0.06,0-0.12,0-0.16,0.01
			c-0.17,0.01-0.33,0.03-0.51,0.06h-0.01c-0.19,0.03-0.38,0.06-0.56,0.1l-0.17,0.04l-0.35,0.09c-0.01,0-0.03,0.01-0.03,0.01
			c-0.22,0.06-0.45,0.13-0.67,0.2l-0.13,0.04c-0.19,0.06-0.36,0.13-0.55,0.2c-0.03,0.01-0.04,0.01-0.07,0.03
			c-0.14,0.06-0.3,0.13-0.45,0.2c-0.01,0.01-0.04,0.01-0.06,0.03c-0.17,0.07-0.33,0.16-0.51,0.25c-0.04,0.03-0.1,0.06-0.14,0.07
			c-0.19,0.1-0.38,0.2-0.58,0.32c-0.2,0.12-0.41,0.23-0.59,0.36c-0.06,0.04-0.13,0.09-0.19,0.13c-0.13,0.09-0.26,0.17-0.4,0.26
			c-0.07,0.06-0.14,0.1-0.22,0.16c-0.12,0.09-0.25,0.17-0.36,0.26l-0.22,0.17c-0.12,0.09-0.25,0.19-0.36,0.29
			c-0.07,0.06-0.14,0.12-0.2,0.17c-0.13,0.12-0.27,0.23-0.4,0.35c-0.04,0.04-0.1,0.09-0.16,0.13c-0.19,0.16-0.36,0.33-0.55,0.49
			c-0.04,0.03-0.07,0.07-0.12,0.12c-0.12,0.12-0.25,0.23-0.36,0.35l-0.06,0.06c-0.22,0.22-0.42,0.43-0.64,0.65
			c-0.01,0.01-0.01,0.03-0.03,0.03c-0.2,0.22-0.39,0.43-0.58,0.65l-0.06,0.06l-0.22,0.26c-0.07,0.09-0.16,0.19-0.23,0.27
			c-0.1,0.12-0.19,0.23-0.29,0.36c-0.07,0.09-0.14,0.19-0.22,0.27c-0.01,0.01-0.03,0.03-0.04,0.06c-0.03,0.03-0.04,0.06-0.07,0.09
			c-0.23,0.3-0.46,0.62-0.69,0.94c-0.03,0.03-0.04,0.06-0.07,0.1c-0.01,0.01-0.01,0.03-0.03,0.04c-0.22,0.3-0.42,0.62-0.64,0.94
			c-0.01,0.03-0.04,0.06-0.06,0.09c-0.03,0.04-0.06,0.09-0.09,0.14c-0.16,0.26-0.32,0.52-0.48,0.8c-0.03,0.04-0.06,0.09-0.07,0.13
			c-0.01,0.01-0.01,0.03-0.03,0.04c-0.17,0.3-0.35,0.61-0.52,0.93c-0.01,0.03-0.03,0.04-0.04,0.07c-0.03,0.06-0.06,0.1-0.07,0.16
			c-0.13,0.25-0.26,0.49-0.38,0.75c-0.03,0.06-0.06,0.1-0.07,0.16c-0.01,0.03-0.03,0.06-0.04,0.1c-0.14,0.32-0.3,0.64-0.43,0.96
			c0,0.01-0.01,0.01-0.01,0.03c-0.01,0.03-0.03,0.07-0.04,0.1c-0.13,0.29-0.25,0.58-0.36,0.87c-0.01,0.04-0.04,0.09-0.06,0.14
			c-0.01,0.04-0.03,0.07-0.04,0.12c-0.13,0.35-0.26,0.69-0.38,1.04v0.01c-0.07,0.23-0.14,0.46-0.22,0.68
			c-0.01,0.06-0.04,0.13-0.06,0.19c-0.04,0.13-0.07,0.26-0.12,0.39c-0.01,0.04-0.01,0.09-0.03,0.13c-0.03,0.1-0.06,0.22-0.09,0.32
			c-0.04,0.14-0.07,0.29-0.1,0.43c-0.03,0.12-0.04,0.22-0.07,0.33c-0.01,0.07-0.03,0.14-0.06,0.23c-0.01,0.06-0.01,0.1-0.03,0.16
			c-0.03,0.16-0.06,0.33-0.09,0.49c-0.01,0.12-0.04,0.23-0.06,0.33c-0.03,0.17-0.06,0.33-0.07,0.51c-0.01,0.07-0.03,0.16-0.03,0.23
			c0,0.03-0.01,0.07-0.01,0.1c-0.01,0.07-0.01,0.16-0.03,0.23l-0.04,0.48c-0.01,0.09-0.01,0.16-0.01,0.25
			c-0.01,0.16-0.01,0.32-0.03,0.48c0,0.07-0.01,0.14-0.01,0.22C103,52.59,103,52.82,103,53.04c0.01,3.92,1.4,6.68,3.63,7.99
			l2.14,1.24c-2.24-1.3-3.62-4.07-3.63-7.99c0-0.23,0-0.45,0.01-0.68c0-0.07,0-0.14,0.01-0.22c0.01-0.16,0.01-0.32,0.03-0.48
			c0-0.09,0.01-0.16,0.01-0.25l0.04-0.48c0.01-0.07,0.01-0.16,0.03-0.23c0.01-0.12,0.03-0.23,0.04-0.33
			c0.03-0.17,0.04-0.33,0.07-0.51c0.01-0.12,0.04-0.23,0.06-0.33c0.03-0.16,0.06-0.32,0.09-0.49l0.09-0.39
			c0.03-0.12,0.04-0.22,0.07-0.33c0.03-0.14,0.07-0.29,0.1-0.43c0.03-0.1,0.06-0.22,0.09-0.32c0.04-0.17,0.1-0.35,0.14-0.52
			c0.01-0.06,0.04-0.13,0.06-0.19c0.07-0.23,0.14-0.48,0.23-0.71c0.12-0.35,0.25-0.69,0.38-1.04c0.03-0.09,0.07-0.17,0.1-0.26
			c0.12-0.29,0.23-0.58,0.36-0.87c0.01-0.04,0.03-0.09,0.06-0.13l0.43-0.95c0.04-0.09,0.09-0.16,0.12-0.25
			c0.12-0.25,0.25-0.51,0.38-0.75c0.04-0.07,0.07-0.16,0.12-0.23c0.17-0.32,0.33-0.62,0.52-0.93c0.03-0.06,0.07-0.12,0.1-0.17
			c0.16-0.26,0.32-0.53,0.48-0.8c0.04-0.07,0.1-0.16,0.14-0.23c0.2-0.32,0.42-0.64,0.64-0.94c0.03-0.04,0.07-0.09,0.1-0.14
			c0.23-0.32,0.46-0.64,0.69-0.94c0.03-0.04,0.07-0.1,0.1-0.14c0.07-0.1,0.14-0.19,0.23-0.29c0.1-0.12,0.19-0.23,0.29-0.35
			c0.07-0.1,0.16-0.19,0.23-0.27c0.09-0.12,0.19-0.22,0.27-0.32c0.19-0.22,0.39-0.43,0.59-0.65c0.01-0.01,0.01-0.03,0.03-0.03
			c0.2-0.22,0.42-0.43,0.64-0.65c0.13-0.13,0.27-0.26,0.4-0.4c0.04-0.03,0.07-0.07,0.12-0.12c0.19-0.17,0.36-0.33,0.55-0.49
			c0.04-0.04,0.1-0.09,0.14-0.13c0.13-0.12,0.27-0.23,0.4-0.35c0.07-0.06,0.14-0.12,0.2-0.17c0.12-0.1,0.25-0.19,0.36-0.29
			l0.22-0.17c0.12-0.09,0.25-0.17,0.36-0.26c0.07-0.06,0.14-0.1,0.22-0.16c0.13-0.09,0.26-0.17,0.4-0.26
			c0.06-0.04,0.13-0.09,0.19-0.13c0.2-0.13,0.39-0.25,0.59-0.36c0.19-0.12,0.39-0.22,0.58-0.32c0.04-0.03,0.1-0.06,0.14-0.07
			c0.17-0.09,0.33-0.17,0.51-0.25c0.01-0.01,0.04-0.01,0.06-0.03c0.17-0.09,0.35-0.16,0.52-0.23c0.19-0.07,0.36-0.14,0.55-0.22
			l0.13-0.04c0.23-0.07,0.45-0.14,0.67-0.2c0.13-0.03,0.26-0.07,0.39-0.1c0.06-0.01,0.12-0.03,0.19-0.04
			c0.19-0.04,0.38-0.07,0.56-0.1h0.01c0.17-0.03,0.33-0.04,0.51-0.06c0.06,0,0.12-0.01,0.16-0.01c0.12-0.01,0.25-0.01,0.36-0.01
			h0.65c0.16,0.01,0.32,0.03,0.46,0.04c0.03,0,0.06,0.01,0.1,0.01c0.13,0.01,0.25,0.04,0.38,0.06c0.04,0.01,0.09,0.01,0.13,0.03
			c0.14,0.03,0.27,0.06,0.42,0.1h0.03c0.14,0.04,0.29,0.09,0.42,0.14c0.04,0.01,0.07,0.03,0.12,0.04c0.12,0.04,0.22,0.09,0.33,0.14
			l0.09,0.04c0.14,0.07,0.27,0.14,0.4,0.22L124.21,30.67z M124.21,30.67"/>
		<path class="st19" d="M117.5,32.78c6.87-3.96,12.47-0.78,12.5,7.12c0.03,7.9-5.54,17.54-12.41,21.5
			c-6.87,3.96-12.47,0.78-12.49-7.12C105.07,46.39,110.63,36.76,117.5,32.78L117.5,32.78z M117.5,32.78"/>
		<path class="st18" d="M118.77,40.15c0.2-0.12,0.41-0.14,0.56-0.06c0.3,0.17,0.32,0.75,0,1.29l-1.84,3.2l1.71-0.98
			c0.43-0.26,0.8-0.06,0.8,0.45c0,0.51-0.35,1.11-0.8,1.37l-2.04,1.19v1.22l2.04-1.17c0.43-0.26,0.8-0.04,0.8,0.45
			c0,0.51-0.35,1.11-0.8,1.37l-2.04,1.19v1.62c0,0.51-0.35,1.11-0.8,1.37c-0.43,0.25-0.8,0.04-0.8-0.45v-1.62l-2.04,1.17
			c-0.43,0.26-0.8,0.04-0.8-0.45c0-0.51,0.35-1.11,0.8-1.37l2.04-1.17v-1.22l-2.04,1.17c-0.43,0.26-0.8,0.06-0.8-0.45
			c0-0.51,0.35-1.11,0.8-1.37l1.71-0.98l-1.85-1.06c-0.32-0.17-0.32-0.75,0-1.29c0.16-0.27,0.36-0.48,0.56-0.59
			c0.2-0.12,0.41-0.14,0.56-0.06l1.85,1.06l1.84-3.2C118.37,40.48,118.57,40.27,118.77,40.15L118.77,40.15z M118.77,40.15"/>
		<path class="st20" d="M117.44,53.59v-1.62l-1.56-0.91v1.62c0,0.25,0.09,0.43,0.23,0.51l1.56,0.91
			C117.53,54.01,117.44,53.84,117.44,53.59L117.44,53.59z M121.23,47.98c0.04-0.01,0.09-0.03,0.13-0.03h0.14
			c0.04,0.01,0.07,0.03,0.12,0.04l-1.56-0.91c-0.01,0-0.03-0.01-0.04-0.01c-0.01,0-0.03-0.01-0.04-0.01h-0.2
			c-0.03,0-0.04,0.01-0.07,0.01c-0.01,0-0.01,0.01-0.03,0.01c-0.01,0-0.01,0-0.03,0.01c-0.01,0-0.03,0-0.03,0.01
			c-0.04,0.01-0.07,0.03-0.12,0.06l-2.04,1.17l1.56,0.91l2.04-1.17c0.04-0.03,0.1-0.04,0.14-0.07
			C121.22,47.98,121.23,47.98,121.23,47.98L121.23,47.98z M121.23,44.92c0.04-0.01,0.09-0.03,0.13-0.03h0.14
			c0.04,0.01,0.09,0.03,0.12,0.04l-1.56-0.91c-0.01-0.01-0.03-0.01-0.04-0.01c-0.01,0-0.03-0.01-0.04-0.01h-0.2
			c-0.03,0-0.04,0.01-0.07,0.01c-0.01,0-0.01,0.01-0.03,0.01c-0.01,0-0.01,0-0.03,0.01c-0.01,0-0.03,0-0.03,0.01
			c-0.04,0.01-0.07,0.03-0.12,0.06l-1.71,0.98l1.56,0.91l1.71-0.98c0.04-0.03,0.1-0.04,0.14-0.07
			C121.2,44.94,121.22,44.94,121.23,44.92L121.23,44.92z M117.44,50.15l-1.56-0.91v-1.22l1.55,0.91L117.44,50.15z M117.44,50.15"/>
		<path class="st20" d="M114.62,52.48l0.04-0.17v-0.01c0.01-0.06,0.04-0.13,0.07-0.19c0.03-0.06,0.06-0.13,0.09-0.19
			c0.03-0.06,0.07-0.12,0.12-0.17l0.01-0.01c0.04-0.04,0.07-0.1,0.12-0.14l0.03-0.03c0.03-0.03,0.07-0.06,0.1-0.09l0.04-0.04
			c0.04-0.04,0.1-0.07,0.14-0.1l2.04-1.17l-1.56-0.91l-2.04,1.17c-0.06,0.03-0.1,0.06-0.14,0.1l-0.04,0.04
			c-0.03,0.01-0.04,0.04-0.07,0.06c-0.01,0.01-0.01,0.03-0.03,0.03l-0.06,0.06c-0.03,0.03-0.04,0.06-0.06,0.07
			c-0.01,0.01-0.01,0.01-0.01,0.03l-0.01,0.01c0,0.01-0.01,0.01-0.01,0.03c-0.01,0.03-0.03,0.04-0.04,0.07
			c-0.01,0.03-0.03,0.04-0.04,0.07c-0.01,0.01-0.01,0.04-0.03,0.06c-0.01,0.03-0.03,0.04-0.03,0.07c-0.01,0.01-0.01,0.04-0.03,0.06
			c-0.01,0.03-0.01,0.04-0.03,0.07c-0.01,0.03-0.01,0.04-0.03,0.07c0,0.01-0.01,0.03-0.01,0.04v0.01c0,0.01,0,0.01-0.01,0.03
			c-0.01,0.03-0.01,0.06-0.03,0.09c0,0.01,0,0.04-0.01,0.06v0.06c0,0.06-0.01,0.1-0.01,0.16c0,0.25,0.09,0.42,0.23,0.51l1.56,0.91
			c-0.14-0.09-0.23-0.26-0.23-0.51c0-0.06,0-0.12,0.01-0.19C114.62,52.51,114.62,52.49,114.62,52.48L114.62,52.48z M120.31,41.83
			l0.03-0.03c0.03-0.03,0.06-0.06,0.1-0.09l0.04-0.04c0.04-0.04,0.1-0.07,0.14-0.1c0.04-0.03,0.09-0.04,0.14-0.06
			c0.01,0,0.01,0,0.03-0.01c0.04-0.01,0.09-0.03,0.13-0.03h0.14l0.13,0.04l-1.56-0.91c-0.01,0-0.03-0.01-0.04-0.01
			c-0.01,0-0.03-0.01-0.04-0.01c-0.01,0-0.03,0-0.04-0.01h-0.16c-0.03,0-0.04,0.01-0.07,0.01c-0.01,0-0.03,0.01-0.04,0.01
			c-0.01,0-0.01,0-0.03,0.01c-0.01,0-0.01,0-0.03,0.01c-0.04,0.01-0.07,0.03-0.12,0.06c-0.04,0.03-0.1,0.06-0.14,0.1l-0.04,0.04
			c-0.03,0.03-0.06,0.04-0.07,0.07c0,0-0.01,0.01-0.01,0.03l-0.03,0.03l-0.04,0.04c-0.01,0.03-0.04,0.04-0.06,0.07l-0.01,0.01
			c0,0,0,0.01-0.01,0.01c-0.01,0.01-0.01,0.03-0.03,0.04c-0.01,0.03-0.03,0.04-0.04,0.07c-0.01,0.03-0.03,0.04-0.04,0.07v0.01
			l-1.84,3.2l1.56,0.91l1.84-3.2c0.04-0.06,0.07-0.13,0.12-0.19c0,0,0-0.01,0.01-0.01C120.22,41.91,120.26,41.87,120.31,41.83
			L120.31,41.83z M120.31,41.83"/>
		<path class="st20" d="M114.6,49.44l0.04-0.17v-0.01c0.01-0.06,0.04-0.13,0.07-0.19c0.03-0.06,0.06-0.13,0.09-0.19
			c0.03-0.06,0.07-0.12,0.12-0.17c0,0,0-0.01,0.01-0.01c0.04-0.04,0.07-0.1,0.12-0.14l0.03-0.03c0.03-0.03,0.07-0.06,0.1-0.09
			l0.04-0.04c0.04-0.04,0.1-0.07,0.14-0.1l1.71-0.98l-1.56-0.91l-1.71,0.98c-0.06,0.03-0.1,0.06-0.14,0.1l-0.04,0.04
			c-0.03,0.01-0.04,0.04-0.07,0.06l-0.09,0.09c-0.03,0.03-0.04,0.06-0.06,0.07c0,0.01-0.01,0.01-0.01,0.03l-0.01,0.01
			c0,0.01-0.01,0.01-0.01,0.03c-0.01,0.03-0.03,0.04-0.04,0.07c-0.01,0.03-0.03,0.04-0.04,0.07c-0.01,0.01-0.01,0.04-0.03,0.06
			c-0.01,0.03-0.03,0.04-0.03,0.07c-0.01,0.01-0.01,0.04-0.03,0.06c-0.01,0.03-0.01,0.04-0.03,0.07c-0.01,0.03-0.01,0.04-0.03,0.07
			c0,0.01-0.01,0.03-0.01,0.04v0.01c0,0.01,0,0.01-0.01,0.03c-0.01,0.03-0.01,0.06-0.03,0.09c0,0.01,0,0.04-0.01,0.06v0.06
			c0,0.06-0.01,0.1-0.01,0.16c0,0.25,0.09,0.42,0.23,0.51l1.56,0.91c-0.14-0.09-0.23-0.26-0.23-0.51c0-0.06,0-0.12,0.01-0.19
			C114.6,49.47,114.6,49.45,114.6,49.44L114.6,49.44z M114.6,49.44"/>
		<path class="st21" d="M116.36,44.3l-1.56-0.91l1.87,1.06l1.56,0.91L116.36,44.3z M116.36,44.3"/>
		<path class="st22" d="M120.62,41.57c0.2-0.12,0.4-0.14,0.56-0.06c0.3,0.17,0.32,0.75,0,1.29l-1.84,3.2l1.71-0.98
			c0.43-0.26,0.8-0.06,0.8,0.45c0,0.51-0.35,1.11-0.8,1.37l-2.04,1.19v1.22l2.04-1.17c0.43-0.26,0.8-0.04,0.8,0.45
			c0,0.51-0.35,1.11-0.8,1.37l-2.04,1.19v1.62c0,0.51-0.35,1.11-0.8,1.37c-0.43,0.25-0.8,0.04-0.8-0.45V52l-2.04,1.17
			c-0.43,0.26-0.8,0.04-0.8-0.45c0-0.51,0.35-1.11,0.8-1.37l2.04-1.17v-1.22l-2.04,1.17c-0.43,0.26-0.8,0.06-0.8-0.45
			c0-0.51,0.35-1.11,0.8-1.37l1.71-0.98l-1.85-1.06c-0.32-0.17-0.32-0.75,0-1.29c0.16-0.27,0.36-0.48,0.56-0.59
			c0.2-0.12,0.4-0.14,0.56-0.06l1.85,1.06l1.84-3.2C120.22,41.9,120.42,41.68,120.62,41.57L120.62,41.57z M120.62,41.57"/>
		<path class="st20" d="M115.24,46.24l-1.56-0.91c-0.19-0.1-0.26-0.36-0.23-0.67l1.56,0.91C114.98,45.88,115.05,46.12,115.24,46.24"
			/>
		<path class="st20" d="M115.01,45.58l-1.56-0.91c0-0.04,0.01-0.07,0.01-0.12l1.56,0.91C115.02,45.5,115.02,45.53,115.01,45.58
			 M115.04,45.46l-1.56-0.91c0-0.03,0.01-0.06,0.03-0.09l1.56,0.91C115.05,45.4,115.04,45.43,115.04,45.46"/>
		<path class="st20" d="M115.05,45.37l-1.56-0.91c0.01-0.03,0.01-0.06,0.03-0.09l1.56,0.91C115.07,45.32,115.07,45.34,115.05,45.37"
			/>
		<path class="st20" d="M115.08,45.29l-1.56-0.91c0.01-0.03,0.01-0.04,0.03-0.07l1.56,0.91C115.1,45.24,115.08,45.26,115.08,45.29"
			/>
		<path class="st20" d="M115.11,45.21l-1.56-0.91c0.01-0.03,0.01-0.04,0.03-0.07l1.56,0.91C115.13,45.17,115.11,45.18,115.11,45.21"
			/>
		<path class="st20" d="M115.14,45.14l-1.56-0.91c0.01-0.03,0.01-0.04,0.03-0.07l1.56,0.91C115.15,45.1,115.14,45.13,115.14,45.14"
			/>
		<path class="st20" d="M115.17,45.07l-1.56-0.91c0.01-0.03,0.03-0.04,0.03-0.07L115.2,45C115.18,45.03,115.18,45.05,115.17,45.07"
			/>
		<path class="st20" d="M115.2,45.01l-1.55-0.91c0.01-0.01,0.03-0.04,0.03-0.06v-0.01l1.56,0.91v0.01
			C115.23,44.97,115.21,44.98,115.2,45.01"/>
		<path class="st20" d="M115.24,44.94l-1.56-0.91c0.01-0.03,0.03-0.04,0.04-0.07l1.56,0.91C115.27,44.9,115.26,44.91,115.24,44.94
			 M115.28,44.87l-1.56-0.91c0.01-0.03,0.03-0.04,0.04-0.07l1.56,0.91C115.31,44.82,115.3,44.85,115.28,44.87"/>
		<path class="st20" d="M115.33,44.81l-1.56-0.91c0.01-0.03,0.03-0.04,0.06-0.07l1.56,0.91C115.36,44.75,115.34,44.78,115.33,44.81"
			/>
		<path class="st20" d="M115.39,44.74l-1.56-0.91c0.01-0.03,0.04-0.06,0.06-0.07l1.56,0.91C115.41,44.68,115.4,44.71,115.39,44.74
			 M115.44,44.65l-1.56-0.91l0.09-0.09l1.56,0.91L115.44,44.65"/>
		<path class="st20" d="M115.53,44.56l-1.56-0.91c0.09-0.09,0.17-0.16,0.26-0.2c0.04-0.01,0.07-0.04,0.12-0.06l1.56,0.91
			c-0.04,0.01-0.07,0.03-0.12,0.06C115.7,44.4,115.62,44.48,115.53,44.56 M115.91,44.3l-1.56-0.91c0.03-0.01,0.06-0.03,0.09-0.03
			l1.56,0.91C115.96,44.27,115.94,44.29,115.91,44.3 M116.01,44.27l-1.56-0.91c0.03,0,0.04-0.01,0.07-0.01l1.56,0.91
			C116.05,44.26,116.02,44.26,116.01,44.27"/>
		<path class="st20" d="M116.07,44.26l-1.56-0.91h0.06l1.56,0.91C116.11,44.24,116.09,44.24,116.07,44.26 M116.12,44.24l-1.56-0.91
			h0.06l1.56,0.91H116.12"/>
		<polyline class="st20" points="116.18,44.24 114.62,43.33 114.66,43.33 116.23,44.24 116.18,44.24 		"/>
		<path class="st20" d="M116.23,44.26l-1.56-0.91c0.01,0,0.03,0,0.04,0.01l1.56,0.91C116.25,44.26,116.24,44.26,116.23,44.26
			 M116.27,44.26l-1.56-0.91c0.01,0,0.03,0.01,0.04,0.01l1.56,0.91C116.3,44.27,116.28,44.27,116.27,44.26"/>
		<path class="st20" d="M116.31,44.27l-1.56-0.91c0.01,0,0.03,0.01,0.04,0.01l1.56,0.91C116.34,44.29,116.33,44.29,116.31,44.27
			 M116.36,44.3l-1.56-0.91L116.36,44.3"/>
	</g>
	<g id="data_cube_13_">
		<g>
			<linearGradient id="SVGID_11_" gradientUnits="userSpaceOnUse" x1="236.7427" y1="163.5406" x2="229.2962" y2="166.9138">
				<stop  offset="5.025130e-03" style="stop-color:#5298EF"/>
				<stop  offset="1" style="stop-color:#73B0F1;stop-opacity:0"/>
			</linearGradient>
			<polygon class="st23" points="225.85,165.7 232.95,161.94 239.85,165.07 232.64,168.71 			"/>
			<linearGradient id="SVGID_12_" gradientUnits="userSpaceOnUse" x1="232.7888" y1="158.771" x2="246.5929" y2="158.771">
				<stop  offset="0" style="stop-color:#6DACEF"/>
				<stop  offset="1" style="stop-color:#97C9FE"/>
			</linearGradient>
			<polygon class="st24" points="246.59,156.68 239.86,165.09 232.86,162.02 232.79,152.45 246.59,154.14 			"/>
			<linearGradient id="SVGID_13_" gradientUnits="userSpaceOnUse" x1="239.8055" y1="161.7116" x2="246.3942" y2="156.2334">
				<stop  offset="3.378380e-03" style="stop-color:#8EBEF4"/>
				<stop  offset="1" style="stop-color:#B4D8FA"/>
			</linearGradient>
			<polygon class="st25" points="239.86,165.09 239.86,155.97 246.31,152.62 246.75,152.66 246.77,161.62 			"/>
			<linearGradient id="SVGID_14_" gradientUnits="userSpaceOnUse" x1="232.7603" y1="152.5688" x2="246.7519" y2="152.5688">
				<stop  offset="0" style="stop-color:#97C3F4"/>
				<stop  offset="1" style="stop-color:#E8F1FA"/>
			</linearGradient>
			<polygon class="st26" points="232.76,152.44 239.59,149 246.75,152.66 239.86,156.14 			"/>
		</g>
		
			<linearGradient id="SVGID_15_" gradientUnits="userSpaceOnUse" x1="-1353.1016" y1="573.8857" x2="-1353.1016" y2="590.7953" gradientTransform="matrix(0.5 0.866 -0.866 0.5 1402.085 1041.4088)">
			<stop  offset="3.378380e-03" style="stop-color:#75B2FF"/>
			<stop  offset="1" style="stop-color:#75B2FF;stop-opacity:0"/>
		</linearGradient>
		<path class="st27" d="M212.41,165.89L212.41,165.89c-0.17-0.29-0.07-0.67,0.22-0.84l16.98-9.8c0.29-0.17,0.67-0.07,0.84,0.22l0,0
			c0.17,0.29,0.07,0.67-0.22,0.84l-16.98,9.8C212.95,166.28,212.58,166.18,212.41,165.89z"/>
		
			<linearGradient id="SVGID_16_" gradientUnits="userSpaceOnUse" x1="-1402.0057" y1="330.6664" x2="-1402.0057" y2="337.9772" gradientTransform="matrix(0.4772 0.8265 -0.7164 0.4136 1135.6169 1183.2845)">
			<stop  offset="3.378380e-03" style="stop-color:#75B2FF"/>
			<stop  offset="1" style="stop-color:#75B2FF;stop-opacity:0"/>
		</linearGradient>
		<path class="st28" d="M224,164.76l-0.08-0.13c-0.14-0.24-0.06-0.55,0.19-0.69l5.5-3.36c0.24-0.14,0.55-0.06,0.69,0.19l0.08,0.13
			c0.14,0.24,0.06,0.55-0.19,0.69l-5.5,3.36C224.45,165.09,224.14,165,224,164.76z"/>
	</g>
	<g>
		<linearGradient id="SVGID_17_" gradientUnits="userSpaceOnUse" x1="159.3725" y1="151.8061" x2="166.3507" y2="151.8061">
			<stop  offset="0" style="stop-color:#579CEF"/>
			<stop  offset="1" style="stop-color:#1D4E8F"/>
		</linearGradient>
		<polygon class="st29" points="159.37,157.41 165.99,161.45 166.35,146.19 159.74,142.16 		"/>
		<linearGradient id="SVGID_18_" gradientUnits="userSpaceOnUse" x1="165.9916" y1="151.9612" x2="173.1622" y2="151.9612">
			<stop  offset="0" style="stop-color:#0071E9"/>
			<stop  offset="1" style="stop-color:#1D4E8F"/>
		</linearGradient>
		<polygon class="st30" points="172.8,157.73 165.99,161.45 166.35,146.19 173.16,142.47 		"/>
		
			<linearGradient id="SVGID_19_" gradientUnits="userSpaceOnUse" x1="15494.6563" y1="135.4607" x2="15508.083" y2="135.4607" gradientTransform="matrix(-0.9997 -0.024 -0.024 0.9997 15666.6025 379.2033)">
			<stop  offset="0" style="stop-color:#836FE3"/>
			<stop  offset="1" style="stop-color:#B46AEB"/>
		</linearGradient>
		<polygon class="st31" points="166.35,146.19 173.16,142.47 166.56,138.45 159.74,142.16 		"/>
		<linearGradient id="SVGID_20_" gradientUnits="userSpaceOnUse" x1="159.739" y1="136.5518" x2="166.7172" y2="136.5518">
			<stop  offset="0" style="stop-color:#3282ED"/>
			<stop  offset="1" style="stop-color:#60A2F0"/>
		</linearGradient>
		<polygon class="st32" points="159.74,142.16 166.36,146.19 166.72,130.94 160.11,126.91 		"/>
		<linearGradient id="SVGID_21_" gradientUnits="userSpaceOnUse" x1="166.3581" y1="136.7069" x2="173.5287" y2="136.7069">
			<stop  offset="0" style="stop-color:#3282ED"/>
			<stop  offset="1" style="stop-color:#60A2F0"/>
		</linearGradient>
		<polygon class="st33" points="173.16,142.48 166.36,146.19 166.72,130.94 173.53,127.22 		"/>
		<linearGradient id="SVGID_22_" gradientUnits="userSpaceOnUse" x1="160.1056" y1="127.0657" x2="173.5287" y2="127.0657">
			<stop  offset="0" style="stop-color:#3282ED"/>
			<stop  offset="1" style="stop-color:#60A2F0"/>
		</linearGradient>
		<polygon class="st34" points="166.72,130.94 173.53,127.22 166.93,123.19 160.11,126.91 		"/>
		<linearGradient id="SVGID_23_" gradientUnits="userSpaceOnUse" x1="148.3237" y1="146.8456" x2="155.8349" y2="146.8456">
			<stop  offset="0" style="stop-color:#579CEF"/>
			<stop  offset="1" style="stop-color:#1D4E8F"/>
		</linearGradient>
		<polygon class="st35" points="148.32,163.54 154.94,167.58 155.83,130.14 149.22,126.11 		"/>
		<linearGradient id="SVGID_24_" gradientUnits="userSpaceOnUse" x1="154.9427" y1="147.0007" x2="162.6464" y2="147.0007">
			<stop  offset="0" style="stop-color:#0071E9"/>
			<stop  offset="1" style="stop-color:#1D4E8F"/>
		</linearGradient>
		<polygon class="st36" points="161.75,163.87 154.94,167.58 155.83,130.14 162.65,126.42 		"/>
		
			<linearGradient id="SVGID_25_" gradientUnits="userSpaceOnUse" x1="15505.5547" y1="119.6636" x2="15518.9814" y2="119.6636" gradientTransform="matrix(-0.9997 -0.024 -0.024 0.9997 15666.6025 379.2033)">
			<stop  offset="0" style="stop-color:#836FE3"/>
			<stop  offset="1" style="stop-color:#B46AEB"/>
		</linearGradient>
		<polygon class="st37" points="155.83,130.14 162.65,126.42 156.05,122.39 149.22,126.11 		"/>
		<linearGradient id="SVGID_26_" gradientUnits="userSpaceOnUse" x1="149.2232" y1="120.4975" x2="156.2014" y2="120.4975">
			<stop  offset="0" style="stop-color:#3282ED"/>
			<stop  offset="1" style="stop-color:#60A2F0"/>
		</linearGradient>
		<polygon class="st38" points="149.22,126.1 155.84,130.14 156.2,114.89 149.59,110.86 		"/>
		<linearGradient id="SVGID_27_" gradientUnits="userSpaceOnUse" x1="155.8422" y1="120.6526" x2="163.0129" y2="120.6526">
			<stop  offset="0" style="stop-color:#3282ED"/>
			<stop  offset="1" style="stop-color:#60A2F0"/>
		</linearGradient>
		<polygon class="st39" points="162.65,126.43 155.84,130.14 156.2,114.89 163.01,111.17 		"/>
		<linearGradient id="SVGID_28_" gradientUnits="userSpaceOnUse" x1="149.5897" y1="111.0113" x2="163.0129" y2="111.0113">
			<stop  offset="0" style="stop-color:#3282ED"/>
			<stop  offset="1" style="stop-color:#60A2F0"/>
		</linearGradient>
		<polygon class="st40" points="156.2,114.89 163.01,111.17 156.41,107.14 149.59,110.86 		"/>
		<linearGradient id="SVGID_29_" gradientUnits="userSpaceOnUse" x1="137.2748" y1="161.8974" x2="144.3575" y2="161.8974">
			<stop  offset="0" style="stop-color:#579CEF"/>
			<stop  offset="1" style="stop-color:#1D4E8F"/>
		</linearGradient>
		<polygon class="st41" points="137.27,169.68 143.89,173.71 144.36,154.11 137.75,150.08 		"/>
		<linearGradient id="SVGID_30_" gradientUnits="userSpaceOnUse" x1="143.8938" y1="162.0525" x2="151.169" y2="162.0525">
			<stop  offset="0" style="stop-color:#0071E9"/>
			<stop  offset="1" style="stop-color:#1D4E8F"/>
		</linearGradient>
		<polygon class="st42" points="150.7,170 143.89,173.71 144.36,154.11 151.17,150.39 		"/>
		
			<linearGradient id="SVGID_31_" gradientUnits="userSpaceOnUse" x1="15516.4531" y1="143.9027" x2="15529.8799" y2="143.9027" gradientTransform="matrix(-0.9997 -0.024 -0.024 0.9997 15666.6025 379.2033)">
			<stop  offset="0" style="stop-color:#836FE3"/>
			<stop  offset="1" style="stop-color:#B46AEB"/>
		</linearGradient>
		<polygon class="st43" points="144.36,154.11 151.17,150.39 144.57,146.36 137.75,150.08 		"/>
		<linearGradient id="SVGID_32_" gradientUnits="userSpaceOnUse" x1="137.7458" y1="144.6854" x2="144.7135" y2="144.6854">
			<stop  offset="0" style="stop-color:#3282ED"/>
			<stop  offset="1" style="stop-color:#60A2F0"/>
		</linearGradient>
		<polygon class="st44" points="137.75,150.07 144.36,154.11 144.71,139.29 138.1,135.26 		"/>
		<linearGradient id="SVGID_33_" gradientUnits="userSpaceOnUse" x1="144.3648" y1="144.8405" x2="151.525" y2="144.8405">
			<stop  offset="0" style="stop-color:#3282ED"/>
			<stop  offset="1" style="stop-color:#60A2F0"/>
		</linearGradient>
		<polygon class="st45" points="151.17,150.4 144.36,154.11 144.71,139.29 151.52,135.57 		"/>
		<linearGradient id="SVGID_34_" gradientUnits="userSpaceOnUse" x1="138.1019" y1="135.4168" x2="151.525" y2="135.4168">
			<stop  offset="0" style="stop-color:#3282ED"/>
			<stop  offset="1" style="stop-color:#60A2F0"/>
		</linearGradient>
		<polygon class="st46" points="144.71,139.29 151.52,135.57 144.93,131.54 138.1,135.26 		"/>
		<linearGradient id="SVGID_35_" gradientUnits="userSpaceOnUse" x1="126.2259" y1="170.4235" x2="133.1936" y2="170.4235">
			<stop  offset="0" style="stop-color:#579CEF"/>
			<stop  offset="1" style="stop-color:#1D4E8F"/>
		</linearGradient>
		<polygon class="st47" points="126.23,175.81 132.84,179.85 133.19,165.03 126.58,161 		"/>
		<linearGradient id="SVGID_36_" gradientUnits="userSpaceOnUse" x1="132.8449" y1="170.5786" x2="140.0051" y2="170.5786">
			<stop  offset="0" style="stop-color:#0071E9"/>
			<stop  offset="1" style="stop-color:#1D4E8F"/>
		</linearGradient>
		<polygon class="st48" points="139.65,176.13 132.84,179.85 133.19,165.03 140.01,161.31 		"/>
		
			<linearGradient id="SVGID_37_" gradientUnits="userSpaceOnUse" x1="15527.3516" y1="155.0866" x2="15540.7783" y2="155.0866" gradientTransform="matrix(-0.9997 -0.024 -0.024 0.9997 15666.6025 379.2033)">
			<stop  offset="0" style="stop-color:#836FE3"/>
			<stop  offset="1" style="stop-color:#B46AEB"/>
		</linearGradient>
		<polygon class="st49" points="133.19,165.03 140.01,161.31 133.41,157.28 126.58,161 		"/>
		<linearGradient id="SVGID_38_" gradientUnits="userSpaceOnUse" x1="126.5819" y1="147.1207" x2="133.9573" y2="147.1207">
			<stop  offset="0" style="stop-color:#3282ED"/>
			<stop  offset="1" style="stop-color:#60A2F0"/>
		</linearGradient>
		<polygon class="st50" points="126.58,160.99 133.2,165.03 133.96,133.24 127.35,129.21 		"/>
		<linearGradient id="SVGID_39_" gradientUnits="userSpaceOnUse" x1="133.2009" y1="147.2758" x2="140.7688" y2="147.2758">
			<stop  offset="0" style="stop-color:#3282ED"/>
			<stop  offset="1" style="stop-color:#60A2F0"/>
		</linearGradient>
		<polygon class="st51" points="140.01,161.31 133.2,165.03 133.96,133.24 140.77,129.52 		"/>
		<linearGradient id="SVGID_40_" gradientUnits="userSpaceOnUse" x1="127.3456" y1="129.3686" x2="140.7688" y2="129.3686">
			<stop  offset="0" style="stop-color:#3282ED"/>
			<stop  offset="1" style="stop-color:#60A2F0"/>
		</linearGradient>
		<polygon class="st52" points="133.96,133.24 140.77,129.52 134.17,125.49 127.35,129.21 		"/>
		<linearGradient id="SVGID_41_" gradientUnits="userSpaceOnUse" x1="115.177" y1="172.8588" x2="122.3224" y2="172.8588">
			<stop  offset="0" style="stop-color:#579CEF"/>
			<stop  offset="1" style="stop-color:#1D4E8F"/>
		</linearGradient>
		<polygon class="st53" points="115.18,181.94 121.8,185.98 122.32,163.77 115.71,159.74 		"/>
		<linearGradient id="SVGID_42_" gradientUnits="userSpaceOnUse" x1="121.796" y1="173.0139" x2="129.1339" y2="173.0139">
			<stop  offset="0" style="stop-color:#0071E9"/>
			<stop  offset="1" style="stop-color:#1D4E8F"/>
		</linearGradient>
		<polygon class="st54" points="128.6,182.27 121.8,185.98 122.32,163.77 129.13,160.05 		"/>
		
			<linearGradient id="SVGID_43_" gradientUnits="userSpaceOnUse" x1="15538.25" y1="154.0854" x2="15551.6768" y2="154.0854" gradientTransform="matrix(-0.9997 -0.024 -0.024 0.9997 15666.6025 379.2033)">
			<stop  offset="0" style="stop-color:#836FE3"/>
			<stop  offset="1" style="stop-color:#B46AEB"/>
		</linearGradient>
		<polygon class="st55" points="122.32,163.77 129.13,160.05 122.54,156.02 115.71,159.74 		"/>
		<linearGradient id="SVGID_44_" gradientUnits="userSpaceOnUse" x1="115.7107" y1="153.9066" x2="122.6993" y2="153.9066">
			<stop  offset="0" style="stop-color:#3282ED"/>
			<stop  offset="1" style="stop-color:#60A2F0"/>
		</linearGradient>
		<polygon class="st56" points="115.71,159.73 122.33,163.77 122.7,148.08 116.09,144.05 		"/>
		<linearGradient id="SVGID_45_" gradientUnits="userSpaceOnUse" x1="122.3297" y1="154.0617" x2="129.5108" y2="154.0617">
			<stop  offset="0" style="stop-color:#3282ED"/>
			<stop  offset="1" style="stop-color:#60A2F0"/>
		</linearGradient>
		<polygon class="st57" points="129.13,160.05 122.33,163.77 122.7,148.08 129.51,144.36 		"/>
		<linearGradient id="SVGID_46_" gradientUnits="userSpaceOnUse" x1="116.0877" y1="144.2029" x2="129.5108" y2="144.2029">
			<stop  offset="0" style="stop-color:#3282ED"/>
			<stop  offset="1" style="stop-color:#60A2F0"/>
		</linearGradient>
		<polygon class="st58" points="122.7,148.08 129.51,144.36 122.91,140.33 116.09,144.05 		"/>
		<linearGradient id="SVGID_47_" gradientUnits="userSpaceOnUse" x1="104.1281" y1="182.255" x2="111.1167" y2="182.255">
			<stop  offset="0" style="stop-color:#579CEF"/>
			<stop  offset="1" style="stop-color:#1D4E8F"/>
		</linearGradient>
		<polygon class="st59" points="104.13,188.08 110.75,192.11 111.12,176.43 104.51,172.4 		"/>
		<linearGradient id="SVGID_48_" gradientUnits="userSpaceOnUse" x1="110.7471" y1="182.4101" x2="117.9282" y2="182.4101">
			<stop  offset="0" style="stop-color:#0071E9"/>
			<stop  offset="1" style="stop-color:#1D4E8F"/>
		</linearGradient>
		<polygon class="st60" points="117.55,188.4 110.75,192.11 111.12,176.43 117.93,172.71 		"/>
		
			<linearGradient id="SVGID_49_" gradientUnits="userSpaceOnUse" x1="15549.1484" y1="167.01" x2="15562.5752" y2="167.01" gradientTransform="matrix(-0.9997 -0.024 -0.024 0.9997 15666.6025 379.2033)">
			<stop  offset="0" style="stop-color:#836FE3"/>
			<stop  offset="1" style="stop-color:#B46AEB"/>
		</linearGradient>
		<polygon class="st61" points="111.12,176.43 117.93,172.71 111.33,168.68 104.51,172.4 		"/>
		<linearGradient id="SVGID_50_" gradientUnits="userSpaceOnUse" x1="104.505" y1="165.6956" x2="111.5355" y2="165.6956">
			<stop  offset="0" style="stop-color:#3282ED"/>
			<stop  offset="1" style="stop-color:#60A2F0"/>
		</linearGradient>
		<polygon class="st62" points="104.51,172.39 111.12,176.43 111.54,159 104.92,154.97 		"/>
		<linearGradient id="SVGID_51_" gradientUnits="userSpaceOnUse" x1="111.1241" y1="165.8507" x2="118.347" y2="165.8507">
			<stop  offset="0" style="stop-color:#3282ED"/>
			<stop  offset="1" style="stop-color:#60A2F0"/>
		</linearGradient>
		<polygon class="st63" points="117.93,172.71 111.12,176.43 111.54,159 118.35,155.28 		"/>
		<linearGradient id="SVGID_52_" gradientUnits="userSpaceOnUse" x1="104.9238" y1="155.1218" x2="118.347" y2="155.1218">
			<stop  offset="0" style="stop-color:#3282ED"/>
			<stop  offset="1" style="stop-color:#60A2F0"/>
		</linearGradient>
		<polygon class="st64" points="111.54,159 118.35,155.28 111.75,151.25 104.92,154.97 		"/>
		<linearGradient id="SVGID_53_" gradientUnits="userSpaceOnUse" x1="93.0792" y1="190.5636" x2="99.9633" y2="190.5636">
			<stop  offset="0" style="stop-color:#579CEF"/>
			<stop  offset="1" style="stop-color:#1D4E8F"/>
		</linearGradient>
		<polygon class="st65" points="93.08,194.21 99.7,198.25 99.96,186.91 93.35,182.88 		"/>
		<linearGradient id="SVGID_54_" gradientUnits="userSpaceOnUse" x1="99.6982" y1="190.7187" x2="106.7748" y2="190.7187">
			<stop  offset="0" style="stop-color:#0071E9"/>
			<stop  offset="1" style="stop-color:#1D4E8F"/>
		</linearGradient>
		<polygon class="st66" points="106.5,194.53 99.7,198.25 99.96,186.91 106.77,183.19 		"/>
		
			<linearGradient id="SVGID_55_" gradientUnits="userSpaceOnUse" x1="15560.0469" y1="177.7586" x2="15573.4736" y2="177.7586" gradientTransform="matrix(-0.9997 -0.024 -0.024 0.9997 15666.6025 379.2033)">
			<stop  offset="0" style="stop-color:#836FE3"/>
			<stop  offset="1" style="stop-color:#B46AEB"/>
		</linearGradient>
		<polygon class="st67" points="99.96,186.91 106.77,183.19 100.18,179.16 93.35,182.88 		"/>
		<linearGradient id="SVGID_56_" gradientUnits="userSpaceOnUse" x1="93.3516" y1="177.0495" x2="100.3403" y2="177.0495">
			<stop  offset="0" style="stop-color:#3282ED"/>
			<stop  offset="1" style="stop-color:#60A2F0"/>
		</linearGradient>
		<polygon class="st68" points="93.35,182.87 99.97,186.91 100.34,171.22 93.73,167.19 		"/>
		<linearGradient id="SVGID_57_" gradientUnits="userSpaceOnUse" x1="99.9707" y1="177.2046" x2="107.1518" y2="177.2046">
			<stop  offset="0" style="stop-color:#3282ED"/>
			<stop  offset="1" style="stop-color:#60A2F0"/>
		</linearGradient>
		<polygon class="st69" points="106.78,183.19 99.97,186.91 100.34,171.22 107.15,167.5 		"/>
		
			<linearGradient id="SVGID_58_" gradientUnits="userSpaceOnUse" x1="15560.0469" y1="162.0648" x2="15573.4736" y2="162.0648" gradientTransform="matrix(-0.9997 -0.024 -0.024 0.9997 15666.6025 379.2033)">
			<stop  offset="0" style="stop-color:#3282ED"/>
			<stop  offset="1" style="stop-color:#60A2F0"/>
		</linearGradient>
		<polygon class="st70" points="100.34,171.22 107.15,167.5 100.55,163.47 93.73,167.19 		"/>
	</g>
</g>
</svg>
